<?xml version="1.0" encoding="utf-8" standalone="no"?>
<!DOCTYPE svg PUBLIC "-//W3C//DTD SVG 1.1//EN"
  "http://www.w3.org/Graphics/SVG/1.1/DTD/svg11.dtd">
<svg xmlns:xlink="http://www.w3.org/1999/xlink" width="460.8pt" height="345.6pt" viewBox="0 0 460.8 345.6" xmlns="http://www.w3.org/2000/svg" version="1.1">
 <metadata>
  <rdf:RDF xmlns:dc="http://purl.org/dc/elements/1.1/" xmlns:cc="http://creativecommons.org/ns#" xmlns:rdf="http://www.w3.org/1999/02/22-rdf-syntax-ns#">
   <cc:Work>
    <dc:type rdf:resource="http://purl.org/dc/dcmitype/StillImage"/>
    <dc:date>2024-08-25T08:17:43.002567</dc:date>
    <dc:format>image/svg+xml</dc:format>
    <dc:creator>
     <cc:Agent>
      <dc:title>Matplotlib v3.7.1, https://matplotlib.org/</dc:title>
     </cc:Agent>
    </dc:creator>
   </cc:Work>
  </rdf:RDF>
 </metadata>
 <defs>
  <style type="text/css">*{stroke-linejoin: round; stroke-linecap: butt}</style>
 </defs>
 <g id="figure_1">
  <g id="patch_1">
   <path d="M 0 345.6 
L 460.8 345.6 
L 460.8 0 
L 0 0 
z
" style="fill: #ffffff"/>
  </g>
  <g id="axes_1">
   <g id="patch_2">
    <path d="M 57.6 307.584 
L 414.72 307.584 
L 414.72 41.472 
L 57.6 41.472 
z
" style="fill: #ffffff"/>
   </g>
   <g id="matplotlib.axis_1">
    <g id="xtick_1">
     <g id="line2d_1">
      <defs>
       <path id="m3fad60717d" d="M 0 0 
L 0 3.5 
" style="stroke: #000000; stroke-width: 0.8"/>
      </defs>
      <g>
       <use xlink:href="#m3fad60717d" x="68.356045" y="307.584" style="stroke: #000000; stroke-width: 0.8"/>
      </g>
     </g>
     <g id="text_1">
      <!-- 0 -->
      <g transform="translate(65.174795 322.182437) scale(0.1 -0.1)">
       <defs>
        <path id="DejaVuSans-30" d="M 2034 4250 
Q 1547 4250 1301 3770 
Q 1056 3291 1056 2328 
Q 1056 1369 1301 889 
Q 1547 409 2034 409 
Q 2525 409 2770 889 
Q 3016 1369 3016 2328 
Q 3016 3291 2770 3770 
Q 2525 4250 2034 4250 
z
M 2034 4750 
Q 2819 4750 3233 4129 
Q 3647 3509 3647 2328 
Q 3647 1150 3233 529 
Q 2819 -91 2034 -91 
Q 1250 -91 836 529 
Q 422 1150 422 2328 
Q 422 3509 836 4129 
Q 1250 4750 2034 4750 
z
" transform="scale(0.015625)"/>
       </defs>
       <use xlink:href="#DejaVuSans-30"/>
      </g>
     </g>
    </g>
    <g id="xtick_2">
     <g id="line2d_2">
      <g>
       <use xlink:href="#m3fad60717d" x="116.791619" y="307.584" style="stroke: #000000; stroke-width: 0.8"/>
      </g>
     </g>
     <g id="text_2">
      <!-- 1 -->
      <g transform="translate(113.610369 322.182437) scale(0.1 -0.1)">
       <defs>
        <path id="DejaVuSans-31" d="M 794 531 
L 1825 531 
L 1825 4091 
L 703 3866 
L 703 4441 
L 1819 4666 
L 2450 4666 
L 2450 531 
L 3481 531 
L 3481 0 
L 794 0 
L 794 531 
z
" transform="scale(0.015625)"/>
       </defs>
       <use xlink:href="#DejaVuSans-31"/>
      </g>
     </g>
    </g>
    <g id="xtick_3">
     <g id="line2d_3">
      <g>
       <use xlink:href="#m3fad60717d" x="165.227193" y="307.584" style="stroke: #000000; stroke-width: 0.8"/>
      </g>
     </g>
     <g id="text_3">
      <!-- 2 -->
      <g transform="translate(162.045943 322.182437) scale(0.1 -0.1)">
       <defs>
        <path id="DejaVuSans-32" d="M 1228 531 
L 3431 531 
L 3431 0 
L 469 0 
L 469 531 
Q 828 903 1448 1529 
Q 2069 2156 2228 2338 
Q 2531 2678 2651 2914 
Q 2772 3150 2772 3378 
Q 2772 3750 2511 3984 
Q 2250 4219 1831 4219 
Q 1534 4219 1204 4116 
Q 875 4013 500 3803 
L 500 4441 
Q 881 4594 1212 4672 
Q 1544 4750 1819 4750 
Q 2544 4750 2975 4387 
Q 3406 4025 3406 3419 
Q 3406 3131 3298 2873 
Q 3191 2616 2906 2266 
Q 2828 2175 2409 1742 
Q 1991 1309 1228 531 
z
" transform="scale(0.015625)"/>
       </defs>
       <use xlink:href="#DejaVuSans-32"/>
      </g>
     </g>
    </g>
    <g id="xtick_4">
     <g id="line2d_4">
      <g>
       <use xlink:href="#m3fad60717d" x="213.662768" y="307.584" style="stroke: #000000; stroke-width: 0.8"/>
      </g>
     </g>
     <g id="text_4">
      <!-- 3 -->
      <g transform="translate(210.481518 322.182437) scale(0.1 -0.1)">
       <defs>
        <path id="DejaVuSans-33" d="M 2597 2516 
Q 3050 2419 3304 2112 
Q 3559 1806 3559 1356 
Q 3559 666 3084 287 
Q 2609 -91 1734 -91 
Q 1441 -91 1130 -33 
Q 819 25 488 141 
L 488 750 
Q 750 597 1062 519 
Q 1375 441 1716 441 
Q 2309 441 2620 675 
Q 2931 909 2931 1356 
Q 2931 1769 2642 2001 
Q 2353 2234 1838 2234 
L 1294 2234 
L 1294 2753 
L 1863 2753 
Q 2328 2753 2575 2939 
Q 2822 3125 2822 3475 
Q 2822 3834 2567 4026 
Q 2313 4219 1838 4219 
Q 1578 4219 1281 4162 
Q 984 4106 628 3988 
L 628 4550 
Q 988 4650 1302 4700 
Q 1616 4750 1894 4750 
Q 2613 4750 3031 4423 
Q 3450 4097 3450 3541 
Q 3450 3153 3228 2886 
Q 3006 2619 2597 2516 
z
" transform="scale(0.015625)"/>
       </defs>
       <use xlink:href="#DejaVuSans-33"/>
      </g>
     </g>
    </g>
    <g id="xtick_5">
     <g id="line2d_5">
      <g>
       <use xlink:href="#m3fad60717d" x="262.098342" y="307.584" style="stroke: #000000; stroke-width: 0.8"/>
      </g>
     </g>
     <g id="text_5">
      <!-- 4 -->
      <g transform="translate(258.917092 322.182437) scale(0.1 -0.1)">
       <defs>
        <path id="DejaVuSans-34" d="M 2419 4116 
L 825 1625 
L 2419 1625 
L 2419 4116 
z
M 2253 4666 
L 3047 4666 
L 3047 1625 
L 3713 1625 
L 3713 1100 
L 3047 1100 
L 3047 0 
L 2419 0 
L 2419 1100 
L 313 1100 
L 313 1709 
L 2253 4666 
z
" transform="scale(0.015625)"/>
       </defs>
       <use xlink:href="#DejaVuSans-34"/>
      </g>
     </g>
    </g>
    <g id="xtick_6">
     <g id="line2d_6">
      <g>
       <use xlink:href="#m3fad60717d" x="310.533916" y="307.584" style="stroke: #000000; stroke-width: 0.8"/>
      </g>
     </g>
     <g id="text_6">
      <!-- 5 -->
      <g transform="translate(307.352666 322.182437) scale(0.1 -0.1)">
       <defs>
        <path id="DejaVuSans-35" d="M 691 4666 
L 3169 4666 
L 3169 4134 
L 1269 4134 
L 1269 2991 
Q 1406 3038 1543 3061 
Q 1681 3084 1819 3084 
Q 2600 3084 3056 2656 
Q 3513 2228 3513 1497 
Q 3513 744 3044 326 
Q 2575 -91 1722 -91 
Q 1428 -91 1123 -41 
Q 819 9 494 109 
L 494 744 
Q 775 591 1075 516 
Q 1375 441 1709 441 
Q 2250 441 2565 725 
Q 2881 1009 2881 1497 
Q 2881 1984 2565 2268 
Q 2250 2553 1709 2553 
Q 1456 2553 1204 2497 
Q 953 2441 691 2322 
L 691 4666 
z
" transform="scale(0.015625)"/>
       </defs>
       <use xlink:href="#DejaVuSans-35"/>
      </g>
     </g>
    </g>
    <g id="xtick_7">
     <g id="line2d_7">
      <g>
       <use xlink:href="#m3fad60717d" x="358.96949" y="307.584" style="stroke: #000000; stroke-width: 0.8"/>
      </g>
     </g>
     <g id="text_7">
      <!-- 6 -->
      <g transform="translate(355.78824 322.182437) scale(0.1 -0.1)">
       <defs>
        <path id="DejaVuSans-36" d="M 2113 2584 
Q 1688 2584 1439 2293 
Q 1191 2003 1191 1497 
Q 1191 994 1439 701 
Q 1688 409 2113 409 
Q 2538 409 2786 701 
Q 3034 994 3034 1497 
Q 3034 2003 2786 2293 
Q 2538 2584 2113 2584 
z
M 3366 4563 
L 3366 3988 
Q 3128 4100 2886 4159 
Q 2644 4219 2406 4219 
Q 1781 4219 1451 3797 
Q 1122 3375 1075 2522 
Q 1259 2794 1537 2939 
Q 1816 3084 2150 3084 
Q 2853 3084 3261 2657 
Q 3669 2231 3669 1497 
Q 3669 778 3244 343 
Q 2819 -91 2113 -91 
Q 1303 -91 875 529 
Q 447 1150 447 2328 
Q 447 3434 972 4092 
Q 1497 4750 2381 4750 
Q 2619 4750 2861 4703 
Q 3103 4656 3366 4563 
z
" transform="scale(0.015625)"/>
       </defs>
       <use xlink:href="#DejaVuSans-36"/>
      </g>
     </g>
    </g>
    <g id="xtick_8">
     <g id="line2d_8">
      <g>
       <use xlink:href="#m3fad60717d" x="407.405065" y="307.584" style="stroke: #000000; stroke-width: 0.8"/>
      </g>
     </g>
     <g id="text_8">
      <!-- 7 -->
      <g transform="translate(404.223815 322.182437) scale(0.1 -0.1)">
       <defs>
        <path id="DejaVuSans-37" d="M 525 4666 
L 3525 4666 
L 3525 4397 
L 1831 0 
L 1172 0 
L 2766 4134 
L 525 4134 
L 525 4666 
z
" transform="scale(0.015625)"/>
       </defs>
       <use xlink:href="#DejaVuSans-37"/>
      </g>
     </g>
    </g>
    <g id="text_9">
     <!-- distortion -->
     <g transform="translate(212.339687 335.860562) scale(0.1 -0.1)">
      <defs>
       <path id="DejaVuSans-64" d="M 2906 2969 
L 2906 4863 
L 3481 4863 
L 3481 0 
L 2906 0 
L 2906 525 
Q 2725 213 2448 61 
Q 2172 -91 1784 -91 
Q 1150 -91 751 415 
Q 353 922 353 1747 
Q 353 2572 751 3078 
Q 1150 3584 1784 3584 
Q 2172 3584 2448 3432 
Q 2725 3281 2906 2969 
z
M 947 1747 
Q 947 1113 1208 752 
Q 1469 391 1925 391 
Q 2381 391 2643 752 
Q 2906 1113 2906 1747 
Q 2906 2381 2643 2742 
Q 2381 3103 1925 3103 
Q 1469 3103 1208 2742 
Q 947 2381 947 1747 
z
" transform="scale(0.015625)"/>
       <path id="DejaVuSans-69" d="M 603 3500 
L 1178 3500 
L 1178 0 
L 603 0 
L 603 3500 
z
M 603 4863 
L 1178 4863 
L 1178 4134 
L 603 4134 
L 603 4863 
z
" transform="scale(0.015625)"/>
       <path id="DejaVuSans-73" d="M 2834 3397 
L 2834 2853 
Q 2591 2978 2328 3040 
Q 2066 3103 1784 3103 
Q 1356 3103 1142 2972 
Q 928 2841 928 2578 
Q 928 2378 1081 2264 
Q 1234 2150 1697 2047 
L 1894 2003 
Q 2506 1872 2764 1633 
Q 3022 1394 3022 966 
Q 3022 478 2636 193 
Q 2250 -91 1575 -91 
Q 1294 -91 989 -36 
Q 684 19 347 128 
L 347 722 
Q 666 556 975 473 
Q 1284 391 1588 391 
Q 1994 391 2212 530 
Q 2431 669 2431 922 
Q 2431 1156 2273 1281 
Q 2116 1406 1581 1522 
L 1381 1569 
Q 847 1681 609 1914 
Q 372 2147 372 2553 
Q 372 3047 722 3315 
Q 1072 3584 1716 3584 
Q 2034 3584 2315 3537 
Q 2597 3491 2834 3397 
z
" transform="scale(0.015625)"/>
       <path id="DejaVuSans-74" d="M 1172 4494 
L 1172 3500 
L 2356 3500 
L 2356 3053 
L 1172 3053 
L 1172 1153 
Q 1172 725 1289 603 
Q 1406 481 1766 481 
L 2356 481 
L 2356 0 
L 1766 0 
Q 1100 0 847 248 
Q 594 497 594 1153 
L 594 3053 
L 172 3053 
L 172 3500 
L 594 3500 
L 594 4494 
L 1172 4494 
z
" transform="scale(0.015625)"/>
       <path id="DejaVuSans-6f" d="M 1959 3097 
Q 1497 3097 1228 2736 
Q 959 2375 959 1747 
Q 959 1119 1226 758 
Q 1494 397 1959 397 
Q 2419 397 2687 759 
Q 2956 1122 2956 1747 
Q 2956 2369 2687 2733 
Q 2419 3097 1959 3097 
z
M 1959 3584 
Q 2709 3584 3137 3096 
Q 3566 2609 3566 1747 
Q 3566 888 3137 398 
Q 2709 -91 1959 -91 
Q 1206 -91 779 398 
Q 353 888 353 1747 
Q 353 2609 779 3096 
Q 1206 3584 1959 3584 
z
" transform="scale(0.015625)"/>
       <path id="DejaVuSans-72" d="M 2631 2963 
Q 2534 3019 2420 3045 
Q 2306 3072 2169 3072 
Q 1681 3072 1420 2755 
Q 1159 2438 1159 1844 
L 1159 0 
L 581 0 
L 581 3500 
L 1159 3500 
L 1159 2956 
Q 1341 3275 1631 3429 
Q 1922 3584 2338 3584 
Q 2397 3584 2469 3576 
Q 2541 3569 2628 3553 
L 2631 2963 
z
" transform="scale(0.015625)"/>
       <path id="DejaVuSans-6e" d="M 3513 2113 
L 3513 0 
L 2938 0 
L 2938 2094 
Q 2938 2591 2744 2837 
Q 2550 3084 2163 3084 
Q 1697 3084 1428 2787 
Q 1159 2491 1159 1978 
L 1159 0 
L 581 0 
L 581 3500 
L 1159 3500 
L 1159 2956 
Q 1366 3272 1645 3428 
Q 1925 3584 2291 3584 
Q 2894 3584 3203 3211 
Q 3513 2838 3513 2113 
z
" transform="scale(0.015625)"/>
      </defs>
      <use xlink:href="#DejaVuSans-64"/>
      <use xlink:href="#DejaVuSans-69" x="63.476562"/>
      <use xlink:href="#DejaVuSans-73" x="91.259766"/>
      <use xlink:href="#DejaVuSans-74" x="143.359375"/>
      <use xlink:href="#DejaVuSans-6f" x="182.568359"/>
      <use xlink:href="#DejaVuSans-72" x="243.75"/>
      <use xlink:href="#DejaVuSans-74" x="284.863281"/>
      <use xlink:href="#DejaVuSans-69" x="324.072266"/>
      <use xlink:href="#DejaVuSans-6f" x="351.855469"/>
      <use xlink:href="#DejaVuSans-6e" x="413.037109"/>
     </g>
    </g>
   </g>
   <g id="matplotlib.axis_2">
    <g id="ytick_1">
     <g id="line2d_9">
      <defs>
       <path id="mac8e6370da" d="M 0 0 
L -3.5 0 
" style="stroke: #000000; stroke-width: 0.8"/>
      </defs>
      <g>
       <use xlink:href="#mac8e6370da" x="57.6" y="260.135643" style="stroke: #000000; stroke-width: 0.8"/>
      </g>
     </g>
     <g id="text_10">
      <!-- $\mathdefault{10^{-3}}$ -->
      <g transform="translate(27.1 263.934862) scale(0.1 -0.1)">
       <defs>
        <path id="DejaVuSans-2212" d="M 678 2272 
L 4684 2272 
L 4684 1741 
L 678 1741 
L 678 2272 
z
" transform="scale(0.015625)"/>
       </defs>
       <use xlink:href="#DejaVuSans-31" transform="translate(0 0.765625)"/>
       <use xlink:href="#DejaVuSans-30" transform="translate(63.623047 0.765625)"/>
       <use xlink:href="#DejaVuSans-2212" transform="translate(128.203125 39.046875) scale(0.7)"/>
       <use xlink:href="#DejaVuSans-33" transform="translate(186.855469 39.046875) scale(0.7)"/>
      </g>
     </g>
    </g>
    <g id="ytick_2">
     <g id="line2d_10">
      <g>
       <use xlink:href="#mac8e6370da" x="57.6" y="187.247762" style="stroke: #000000; stroke-width: 0.8"/>
      </g>
     </g>
     <g id="text_11">
      <!-- $\mathdefault{10^{-2}}$ -->
      <g transform="translate(27.1 191.046981) scale(0.1 -0.1)">
       <use xlink:href="#DejaVuSans-31" transform="translate(0 0.765625)"/>
       <use xlink:href="#DejaVuSans-30" transform="translate(63.623047 0.765625)"/>
       <use xlink:href="#DejaVuSans-2212" transform="translate(128.203125 39.046875) scale(0.7)"/>
       <use xlink:href="#DejaVuSans-32" transform="translate(186.855469 39.046875) scale(0.7)"/>
      </g>
     </g>
    </g>
    <g id="ytick_3">
     <g id="line2d_11">
      <g>
       <use xlink:href="#mac8e6370da" x="57.6" y="114.359881" style="stroke: #000000; stroke-width: 0.8"/>
      </g>
     </g>
     <g id="text_12">
      <!-- $\mathdefault{10^{-1}}$ -->
      <g transform="translate(27.1 118.1591) scale(0.1 -0.1)">
       <use xlink:href="#DejaVuSans-31" transform="translate(0 0.684375)"/>
       <use xlink:href="#DejaVuSans-30" transform="translate(63.623047 0.684375)"/>
       <use xlink:href="#DejaVuSans-2212" transform="translate(128.203125 38.965625) scale(0.7)"/>
       <use xlink:href="#DejaVuSans-31" transform="translate(186.855469 38.965625) scale(0.7)"/>
      </g>
     </g>
    </g>
    <g id="ytick_4">
     <g id="line2d_12">
      <g>
       <use xlink:href="#mac8e6370da" x="57.6" y="41.472" style="stroke: #000000; stroke-width: 0.8"/>
      </g>
     </g>
     <g id="text_13">
      <!-- $\mathdefault{10^{0}}$ -->
      <g transform="translate(33 45.271219) scale(0.1 -0.1)">
       <use xlink:href="#DejaVuSans-31" transform="translate(0 0.765625)"/>
       <use xlink:href="#DejaVuSans-30" transform="translate(63.623047 0.765625)"/>
       <use xlink:href="#DejaVuSans-30" transform="translate(128.203125 39.046875) scale(0.7)"/>
      </g>
     </g>
    </g>
    <g id="ytick_5">
     <g id="line2d_13">
      <defs>
       <path id="m1a69262a4f" d="M 0 0 
L -2 0 
" style="stroke: #000000; stroke-width: 0.6"/>
      </defs>
      <g>
       <use xlink:href="#m1a69262a4f" x="57.6" y="298.247167" style="stroke: #000000; stroke-width: 0.6"/>
      </g>
     </g>
    </g>
    <g id="ytick_6">
     <g id="line2d_14">
      <g>
       <use xlink:href="#m1a69262a4f" x="57.6" y="289.140647" style="stroke: #000000; stroke-width: 0.6"/>
      </g>
     </g>
    </g>
    <g id="ytick_7">
     <g id="line2d_15">
      <g>
       <use xlink:href="#m1a69262a4f" x="57.6" y="282.077081" style="stroke: #000000; stroke-width: 0.6"/>
      </g>
     </g>
    </g>
    <g id="ytick_8">
     <g id="line2d_16">
      <g>
       <use xlink:href="#m1a69262a4f" x="57.6" y="276.305728" style="stroke: #000000; stroke-width: 0.6"/>
      </g>
     </g>
    </g>
    <g id="ytick_9">
     <g id="line2d_17">
      <g>
       <use xlink:href="#m1a69262a4f" x="57.6" y="271.426118" style="stroke: #000000; stroke-width: 0.6"/>
      </g>
     </g>
    </g>
    <g id="ytick_10">
     <g id="line2d_18">
      <g>
       <use xlink:href="#m1a69262a4f" x="57.6" y="267.199208" style="stroke: #000000; stroke-width: 0.6"/>
      </g>
     </g>
    </g>
    <g id="ytick_11">
     <g id="line2d_19">
      <g>
       <use xlink:href="#m1a69262a4f" x="57.6" y="263.470809" style="stroke: #000000; stroke-width: 0.6"/>
      </g>
     </g>
    </g>
    <g id="ytick_12">
     <g id="line2d_20">
      <g>
       <use xlink:href="#m1a69262a4f" x="57.6" y="238.194204" style="stroke: #000000; stroke-width: 0.6"/>
      </g>
     </g>
    </g>
    <g id="ytick_13">
     <g id="line2d_21">
      <g>
       <use xlink:href="#m1a69262a4f" x="57.6" y="225.359286" style="stroke: #000000; stroke-width: 0.6"/>
      </g>
     </g>
    </g>
    <g id="ytick_14">
     <g id="line2d_22">
      <g>
       <use xlink:href="#m1a69262a4f" x="57.6" y="216.252766" style="stroke: #000000; stroke-width: 0.6"/>
      </g>
     </g>
    </g>
    <g id="ytick_15">
     <g id="line2d_23">
      <g>
       <use xlink:href="#m1a69262a4f" x="57.6" y="209.1892" style="stroke: #000000; stroke-width: 0.6"/>
      </g>
     </g>
    </g>
    <g id="ytick_16">
     <g id="line2d_24">
      <g>
       <use xlink:href="#m1a69262a4f" x="57.6" y="203.417847" style="stroke: #000000; stroke-width: 0.6"/>
      </g>
     </g>
    </g>
    <g id="ytick_17">
     <g id="line2d_25">
      <g>
       <use xlink:href="#m1a69262a4f" x="57.6" y="198.538237" style="stroke: #000000; stroke-width: 0.6"/>
      </g>
     </g>
    </g>
    <g id="ytick_18">
     <g id="line2d_26">
      <g>
       <use xlink:href="#m1a69262a4f" x="57.6" y="194.311327" style="stroke: #000000; stroke-width: 0.6"/>
      </g>
     </g>
    </g>
    <g id="ytick_19">
     <g id="line2d_27">
      <g>
       <use xlink:href="#m1a69262a4f" x="57.6" y="190.582928" style="stroke: #000000; stroke-width: 0.6"/>
      </g>
     </g>
    </g>
    <g id="ytick_20">
     <g id="line2d_28">
      <g>
       <use xlink:href="#m1a69262a4f" x="57.6" y="165.306323" style="stroke: #000000; stroke-width: 0.6"/>
      </g>
     </g>
    </g>
    <g id="ytick_21">
     <g id="line2d_29">
      <g>
       <use xlink:href="#m1a69262a4f" x="57.6" y="152.471405" style="stroke: #000000; stroke-width: 0.6"/>
      </g>
     </g>
    </g>
    <g id="ytick_22">
     <g id="line2d_30">
      <g>
       <use xlink:href="#m1a69262a4f" x="57.6" y="143.364885" style="stroke: #000000; stroke-width: 0.6"/>
      </g>
     </g>
    </g>
    <g id="ytick_23">
     <g id="line2d_31">
      <g>
       <use xlink:href="#m1a69262a4f" x="57.6" y="136.301319" style="stroke: #000000; stroke-width: 0.6"/>
      </g>
     </g>
    </g>
    <g id="ytick_24">
     <g id="line2d_32">
      <g>
       <use xlink:href="#m1a69262a4f" x="57.6" y="130.529966" style="stroke: #000000; stroke-width: 0.6"/>
      </g>
     </g>
    </g>
    <g id="ytick_25">
     <g id="line2d_33">
      <g>
       <use xlink:href="#m1a69262a4f" x="57.6" y="125.650357" style="stroke: #000000; stroke-width: 0.6"/>
      </g>
     </g>
    </g>
    <g id="ytick_26">
     <g id="line2d_34">
      <g>
       <use xlink:href="#m1a69262a4f" x="57.6" y="121.423446" style="stroke: #000000; stroke-width: 0.6"/>
      </g>
     </g>
    </g>
    <g id="ytick_27">
     <g id="line2d_35">
      <g>
       <use xlink:href="#m1a69262a4f" x="57.6" y="117.695047" style="stroke: #000000; stroke-width: 0.6"/>
      </g>
     </g>
    </g>
    <g id="ytick_28">
     <g id="line2d_36">
      <g>
       <use xlink:href="#m1a69262a4f" x="57.6" y="92.418442" style="stroke: #000000; stroke-width: 0.6"/>
      </g>
     </g>
    </g>
    <g id="ytick_29">
     <g id="line2d_37">
      <g>
       <use xlink:href="#m1a69262a4f" x="57.6" y="79.583524" style="stroke: #000000; stroke-width: 0.6"/>
      </g>
     </g>
    </g>
    <g id="ytick_30">
     <g id="line2d_38">
      <g>
       <use xlink:href="#m1a69262a4f" x="57.6" y="70.477004" style="stroke: #000000; stroke-width: 0.6"/>
      </g>
     </g>
    </g>
    <g id="ytick_31">
     <g id="line2d_39">
      <g>
       <use xlink:href="#m1a69262a4f" x="57.6" y="63.413438" style="stroke: #000000; stroke-width: 0.6"/>
      </g>
     </g>
    </g>
    <g id="ytick_32">
     <g id="line2d_40">
      <g>
       <use xlink:href="#m1a69262a4f" x="57.6" y="57.642085" style="stroke: #000000; stroke-width: 0.6"/>
      </g>
     </g>
    </g>
    <g id="ytick_33">
     <g id="line2d_41">
      <g>
       <use xlink:href="#m1a69262a4f" x="57.6" y="52.762476" style="stroke: #000000; stroke-width: 0.6"/>
      </g>
     </g>
    </g>
    <g id="ytick_34">
     <g id="line2d_42">
      <g>
       <use xlink:href="#m1a69262a4f" x="57.6" y="48.535565" style="stroke: #000000; stroke-width: 0.6"/>
      </g>
     </g>
    </g>
    <g id="ytick_35">
     <g id="line2d_43">
      <g>
       <use xlink:href="#m1a69262a4f" x="57.6" y="44.807167" style="stroke: #000000; stroke-width: 0.6"/>
      </g>
     </g>
    </g>
    <g id="text_14">
     <!-- Proportion -->
     <g transform="translate(21.020312 200.324094) rotate(-90) scale(0.1 -0.1)">
      <defs>
       <path id="DejaVuSans-50" d="M 1259 4147 
L 1259 2394 
L 2053 2394 
Q 2494 2394 2734 2622 
Q 2975 2850 2975 3272 
Q 2975 3691 2734 3919 
Q 2494 4147 2053 4147 
L 1259 4147 
z
M 628 4666 
L 2053 4666 
Q 2838 4666 3239 4311 
Q 3641 3956 3641 3272 
Q 3641 2581 3239 2228 
Q 2838 1875 2053 1875 
L 1259 1875 
L 1259 0 
L 628 0 
L 628 4666 
z
" transform="scale(0.015625)"/>
       <path id="DejaVuSans-70" d="M 1159 525 
L 1159 -1331 
L 581 -1331 
L 581 3500 
L 1159 3500 
L 1159 2969 
Q 1341 3281 1617 3432 
Q 1894 3584 2278 3584 
Q 2916 3584 3314 3078 
Q 3713 2572 3713 1747 
Q 3713 922 3314 415 
Q 2916 -91 2278 -91 
Q 1894 -91 1617 61 
Q 1341 213 1159 525 
z
M 3116 1747 
Q 3116 2381 2855 2742 
Q 2594 3103 2138 3103 
Q 1681 3103 1420 2742 
Q 1159 2381 1159 1747 
Q 1159 1113 1420 752 
Q 1681 391 2138 391 
Q 2594 391 2855 752 
Q 3116 1113 3116 1747 
z
" transform="scale(0.015625)"/>
      </defs>
      <use xlink:href="#DejaVuSans-50"/>
      <use xlink:href="#DejaVuSans-72" x="58.552734"/>
      <use xlink:href="#DejaVuSans-6f" x="97.416016"/>
      <use xlink:href="#DejaVuSans-70" x="158.597656"/>
      <use xlink:href="#DejaVuSans-6f" x="222.074219"/>
      <use xlink:href="#DejaVuSans-72" x="283.255859"/>
      <use xlink:href="#DejaVuSans-74" x="324.369141"/>
      <use xlink:href="#DejaVuSans-69" x="363.578125"/>
      <use xlink:href="#DejaVuSans-6f" x="391.361328"/>
      <use xlink:href="#DejaVuSans-6e" x="452.542969"/>
     </g>
    </g>
   </g>
   <g id="line2d_44">
    <path d="M 91.999639 41.472 
L 91.999639 41.482553 
L 94.215991 41.588281 
L 94.216624 41.609469 
L 94.899795 41.715622 
L 94.990031 41.736895 
L 95.295451 41.843477 
L 95.386426 41.886211 
L 95.686002 41.993297 
L 95.786728 42.046977 
L 95.929202 42.15461 
L 96.017128 42.208564 
L 96.323747 42.316749 
L 96.430088 42.392698 
L 96.571475 42.501515 
L 96.67526 42.687367 
L 96.77987 42.797203 
L 96.890597 42.951617 
L 96.946531 43.062376 
L 97.049334 43.229244 
L 97.140576 43.329789 
L 97.241218 43.441881 
L 97.33128 43.543104 
L 97.439872 43.757867 
L 97.496237 43.860108 
L 97.600701 44.065585 
L 97.663312 44.168826 
L 97.765246 44.387891 
L 97.832913 44.492191 
L 97.943396 44.643455 
L 97.969378 44.748601 
L 98.070442 44.97173 
L 98.137483 45.077974 
L 98.235232 45.303445 
L 98.304048 45.41081 
L 98.414542 45.686853 
L 98.452807 45.795529 
L 98.56163 46.074963 
L 98.596325 46.184982 
L 98.704838 46.492611 
L 98.762076 46.591687 
L 98.865713 46.953461 
L 98.930359 47.053992 
L 99.039115 47.395662 
L 99.076427 47.49761 
L 99.187273 47.869948 
L 99.212362 47.973438 
L 99.318258 48.496022 
L 99.366853 48.601582 
L 99.475168 49.121289 
L 99.538252 49.228959 
L 99.64824 49.581436 
L 99.679236 49.690684 
L 99.786375 50.131489 
L 99.838877 50.228739 
L 99.949168 50.733656 
L 99.977513 50.832777 
L 100.086298 51.318684 
L 100.117323 51.419656 
L 100.227275 51.812166 
L 100.249849 51.914728 
L 100.358624 52.417665 
L 100.388347 52.52221 
L 100.49834 53.126328 
L 100.514029 53.233244 
L 100.623079 53.788877 
L 100.673679 53.898058 
L 100.784082 54.433792 
L 100.809167 54.529282 
L 100.913511 55.271099 
L 100.938186 55.369152 
L 101.044946 56.064163 
L 101.064773 56.164707 
L 101.167224 56.723486 
L 101.189924 56.82615 
L 101.300036 57.327109 
L 101.317906 57.431754 
L 101.422 57.853824 
L 101.454965 57.960227 
L 101.563287 58.769857 
L 101.591657 58.879389 
L 101.696937 59.619453 
L 101.712811 59.71319 
L 101.82192 60.338911 
L 101.84115 60.434806 
L 101.932902 61.192925 
L 101.9635 61.291446 
L 102.073694 62.050399 
L 102.088064 62.151629 
L 102.19696 63.161208 
L 102.223369 63.26606 
L 102.329643 64.312418 
L 102.36552 64.42116 
L 102.471998 65.081577 
L 102.490665 65.170682 
L 102.600166 65.869891 
L 102.614884 65.961247 
L 102.725265 66.819027 
L 102.743462 66.913168 
L 102.852497 67.700701 
L 102.864757 67.797505 
L 102.968336 68.359946 
L 102.98817 68.45879 
L 103.097924 69.28625 
L 103.121317 69.388034 
L 103.230306 70.109836 
L 103.254107 70.214307 
L 103.362772 70.875183 
L 103.37943 70.982215 
L 103.49049 72.128463 
L 103.498557 72.211948 
L 103.60711 73.17383 
L 103.616102 73.260122 
L 103.723891 74.195512 
L 103.734674 74.284639 
L 103.837405 75.43585 
L 103.849187 75.528543 
L 103.958056 76.248357 
L 103.96975 76.343464 
L 104.074367 77.245188 
L 104.09766 77.343343 
L 104.198001 78.072596 
L 104.216818 78.173354 
L 104.323564 79.094906 
L 104.333792 79.198977 
L 104.439837 80.330889 
L 104.468282 80.439111 
L 104.574619 81.318468 
L 104.610231 81.392862 
L 104.71936 82.56891 
L 104.733023 82.646305 
L 104.84363 83.750196 
L 104.851885 83.830539 
L 104.9624 85.060802 
L 104.977004 85.144545 
L 105.085391 86.253857 
L 105.102167 86.340821 
L 105.207776 87.179115 
L 105.225642 87.268662 
L 105.332517 88.59639 
L 105.364826 88.690043 
L 105.468997 89.787456 
L 105.486502 89.884706 
L 105.590609 91.025097 
L 105.606847 91.12623 
L 105.716927 92.103467 
L 105.735242 92.208111 
L 105.837451 93.219873 
L 105.857143 93.32828 
L 105.968146 94.377096 
L 106.008452 94.433272 
L 106.10768 95.288089 
L 106.134417 95.345906 
L 106.245378 96.887456 
L 106.249145 96.948272 
L 106.341857 98.253169 
L 106.36558 98.316669 
L 106.47272 99.482008 
L 106.477336 99.548024 
L 106.580582 101.036345 
L 106.594819 101.105687 
L 106.705113 102.164475 
L 106.732524 102.236336 
L 106.842603 104.164391 
L 106.853333 104.240944 
L 106.958963 105.174323 
L 106.971336 105.253361 
L 107.076648 106.299231 
L 107.088397 106.381133 
L 107.177428 107.465593 
L 107.226993 107.550572 
L 107.316335 108.67658 
L 107.34125 108.764878 
L 107.450709 109.935744 
L 107.507111 110.02763 
L 107.611261 111.438925 
L 107.660112 111.535287 
L 107.755848 113.118357 
L 107.77652 113.219978 
L 107.870042 114.359881 
L 107.899261 114.465573 
L 107.999167 115.652093 
L 108.027003 115.762197 
L 108.133151 116.884825 
L 108.138484 116.884825 
L 108.247521 118.167516 
L 108.254751 118.167516 
L 108.354874 119.504386 
L 108.374933 119.504386 
L 108.472117 120.770747 
L 108.507773 120.770747 
L 108.601778 121.688342 
L 108.670812 121.688342 
L 108.779128 122.360444 
L 108.783421 122.360444 
L 108.892708 124.177775 
L 108.910257 124.177775 
L 109.018631 125.499977 
L 109.026834 125.499977 
L 109.10525 126.567951 
L 109.162379 126.567951 
L 109.269991 128.15898 
L 109.330696 128.15898 
L 109.425318 129.492011 
L 109.458576 129.492011 
L 109.56159 130.706317 
L 109.575638 130.706317 
L 109.679537 132.153645 
L 109.691982 132.153645 
L 109.783971 133.284294 
L 109.809246 133.284294 
L 109.91158 134.656544 
L 110.039919 134.656544 
L 110.1456 136.090988 
L 110.15673 136.090988 
L 110.233191 137.374466 
L 110.323846 137.374466 
L 110.389646 138.259973 
L 110.447575 138.259973 
L 110.537177 140.34786 
L 110.6155 140.34786 
L 110.705215 142.072673 
L 110.788968 142.072673 
L 110.890354 143.896911 
L 110.930529 143.896911 
L 111.015197 144.712101 
L 111.041679 144.712101 
L 111.146055 146.700051 
L 111.16291 146.700051 
L 111.23974 148.50939 
L 111.332431 148.50939 
L 111.435832 151.433449 
L 111.536565 151.433449 
L 111.550068 152.471405 
L 111.681254 152.471405 
L 111.783913 155.806571 
L 111.837686 155.806571 
L 111.945369 157.823483 
L 111.996818 157.823483 
L 112.089286 159.53497 
L 112.202012 159.53497 
L 112.308774 162.289298 
L 112.357704 162.289298 
L 112.468696 164.268368 
L 112.487853 164.268368 
L 112.576286 166.930003 
L 112.608487 166.930003 
L 112.634093 168.060652 
L 112.734438 168.060652 
L 112.82743 169.836153 
L 112.94141 169.836153 
L 112.94141 170.450828 
L 113.076081 170.450828 
L 113.165633 171.717189 
L 113.205521 171.717189 
L 113.292116 173.717105 
L 113.511439 173.717105 
L 113.565632 175.851946 
L 113.730082 175.851946 
L 113.731309 177.359602 
L 113.899858 177.359602 
L 113.904645 178.942672 
L 114.03094 178.942672 
L 114.123391 180.609099 
L 114.239494 180.609099 
L 114.344096 184.230737 
L 114.566889 184.230737 
L 114.599781 186.209806 
L 114.76311 186.209806 
L 114.81503 188.320909 
L 114.991847 188.320909 
L 115.034213 191.777591 
L 115.106123 191.777591 
L 115.210914 194.311327 
L 115.470663 194.311327 
L 115.470663 195.658544 
L 115.583216 195.658544 
L 115.691962 200.082681 
L 115.846387 200.082681 
L 115.952086 203.417847 
L 116.124124 203.417847 
L 116.124124 205.227186 
L 116.625839 205.227186 
L 116.625839 207.146246 
L 116.879229 207.146246 
L 116.879229 209.1892 
L 117.087836 209.1892 
L 117.087836 211.373156 
L 117.487484 211.373156 
L 117.487484 213.71903 
L 117.691706 213.71903 
L 117.691706 216.252766 
L 118.139198 216.252766 
L 118.139198 219.007094 
L 118.479111 219.007094 
L 118.479111 222.024119 
L 118.726707 222.024119 
L 118.76183 229.087685 
L 118.910541 229.087685 
L 118.910541 233.314595 
L 119.171338 233.314595 
L 119.171338 238.194204 
L 119.999324 238.194204 
L 119.999324 243.965558 
L 120.303668 243.965558 
L 120.303668 251.029123 
L 120.422848 251.029123 
L 120.422848 260.135643 
L 120.553245 260.135643 
L 120.553245 272.970562 
L 121.240415 272.970562 
L 121.240415 294.912 
L 125.030193 294.912 
L 125.030193 294.912 
" clip-path="url(#p4d6a1d9584)" style="fill: none; stroke: #9467bd; stroke-width: 1.5; stroke-linecap: square"/>
   </g>
   <g id="line2d_45">
    <path d="M 115.172589 41.472 
L 115.19397 41.49311 
L 117.20259 41.598873 
L 117.214849 41.620068 
L 118.722721 41.726257 
L 118.829082 41.747537 
L 119.70078 41.854155 
L 119.779737 41.886211 
L 120.331858 41.993297 
L 120.441446 42.025494 
L 120.918093 42.133054 
L 120.959311 42.165393 
L 121.313964 42.27343 
L 121.424987 42.316749 
L 121.699574 42.425304 
L 121.8088 42.523324 
L 122.002232 42.632591 
L 122.10749 42.753223 
L 122.381774 42.863288 
L 122.479369 42.940563 
L 122.798588 43.051283 
L 122.890447 43.151263 
L 122.992279 43.25156 
L 123.086415 43.374578 
L 123.16872 43.475586 
L 123.261946 43.531841 
L 123.423716 43.633353 
L 123.491435 43.68989 
L 123.686193 43.791911 
L 123.776675 43.848732 
L 123.981366 43.951267 
L 124.092474 44.1229 
L 124.238226 44.226328 
L 124.329906 44.295469 
L 124.438968 44.399463 
L 124.548594 44.503801 
L 124.63557 44.608483 
L 124.746397 44.760305 
L 124.887877 44.865841 
L 124.988799 44.97173 
L 125.062948 45.077974 
L 125.159947 45.23207 
L 125.276774 45.339193 
L 125.36311 45.446679 
L 125.457403 45.554532 
L 125.562053 45.710971 
L 125.652256 45.81973 
L 125.758038 45.989657 
L 125.82902 46.099379 
L 125.928477 46.332271 
L 126.043027 46.443189 
L 126.136328 46.653768 
L 126.205361 46.75335 
L 126.314649 47.016255 
L 126.369309 47.116987 
L 126.478333 47.294041 
L 126.563022 47.395662 
L 126.670194 47.625508 
L 126.74166 47.728201 
L 126.848355 47.986398 
L 126.919596 48.090269 
L 127.021101 48.325234 
L 127.088629 48.430225 
L 127.188476 48.588368 
L 127.237983 48.694237 
L 127.347537 48.907043 
L 127.412356 49.013985 
L 127.52071 49.228959 
L 127.578884 49.336996 
L 127.661984 49.540564 
L 127.741842 49.649672 
L 127.852889 49.951671 
L 127.89984 50.062208 
L 128.001954 50.25658 
L 128.058395 50.354216 
L 128.167043 50.620754 
L 128.215663 50.719521 
L 128.321686 51.017685 
L 128.353272 51.1177 
L 128.461973 51.448565 
L 128.504138 51.549953 
L 128.611416 51.88539 
L 128.663312 51.98819 
L 128.772949 52.254074 
L 128.801244 52.358079 
L 128.908283 52.717287 
L 128.961472 52.822828 
L 129.067817 53.034972 
L 129.103559 53.14158 
L 129.175814 53.355878 
L 129.268439 53.463574 
L 129.36145 53.85122 
L 129.437729 53.960617 
L 129.547233 54.212096 
L 129.668635 54.32275 
L 129.774581 54.609077 
L 129.840924 54.705098 
L 129.950014 55.011099 
L 129.981112 55.108349 
L 130.086321 55.271099 
L 130.135419 55.369152 
L 130.240965 55.681673 
L 130.292854 55.781008 
L 130.399759 56.114395 
L 130.441556 56.2151 
L 130.542866 56.553115 
L 130.578926 56.655227 
L 130.685387 56.980773 
L 130.728461 57.084277 
L 130.838807 57.396834 
L 130.890858 57.501709 
L 130.999928 57.800756 
L 131.049345 57.906981 
L 131.159076 58.461558 
L 131.194049 58.570026 
L 131.298603 58.842836 
L 131.327757 58.952622 
L 131.428373 59.173342 
L 131.455865 59.284281 
L 131.555005 59.619453 
L 131.597242 59.71319 
L 131.70576 60.186082 
L 131.73551 60.281514 
L 131.843094 60.840766 
L 131.885711 60.938196 
L 131.986543 61.232297 
L 132.0394 61.33094 
L 132.149864 61.688626 
L 132.191039 61.788704 
L 132.299899 62.253185 
L 132.337909 62.355067 
L 132.448791 62.724583 
L 132.485961 62.827996 
L 132.593299 63.119364 
L 132.631742 63.224077 
L 132.742619 63.582716 
L 132.798327 63.688976 
L 132.908564 64.160804 
L 132.949767 64.269026 
L 133.060647 64.639772 
L 133.089115 64.749646 
L 133.180622 65.192998 
L 133.210532 65.282419 
L 133.320423 65.642648 
L 133.359312 65.733349 
L 133.468059 66.190797 
L 133.481374 66.283085 
L 133.588012 66.654952 
L 133.63018 66.748605 
L 133.734934 67.173508 
L 133.766306 67.268711 
L 133.876304 67.676546 
L 133.939899 67.773276 
L 134.049547 68.236823 
L 134.096106 68.335283 
L 134.205575 68.682324 
L 134.268028 68.782181 
L 134.375758 69.23548 
L 134.419921 69.337101 
L 134.530169 69.901922 
L 134.568818 70.005708 
L 134.67789 70.529806 
L 134.702571 70.635675 
L 134.796526 70.982215 
L 134.861324 71.089611 
L 134.96895 71.577451 
L 135.016446 71.686889 
L 135.125905 72.128463 
L 135.160429 72.211948 
L 135.267934 72.717537 
L 135.314708 72.802592 
L 135.424551 73.17383 
L 135.462649 73.260122 
L 135.568905 73.81217 
L 135.607418 73.900223 
L 135.715503 74.374017 
L 135.740372 74.463649 
L 135.848618 75.006833 
L 135.878584 75.098277 
L 135.981477 75.683638 
L 136.021046 75.777061 
L 136.121574 76.407028 
L 136.160527 76.502614 
L 136.269887 77.147337 
L 136.289807 77.245188 
L 136.395764 77.57356 
L 136.418541 77.67274 
L 136.520938 78.072596 
L 136.579409 78.173354 
L 136.688389 78.819046 
L 136.726409 78.922212 
L 136.826147 79.338272 
L 136.884172 79.443147 
L 136.992019 80.044094 
L 137.007039 80.151338 
L 137.115776 80.83912 
L 137.151233 80.949096 
L 137.260249 81.392862 
L 137.290093 81.467432 
L 137.39896 81.956464 
L 137.464331 82.032375 
L 137.568803 82.646305 
L 137.588236 82.723891 
L 137.691176 82.996947 
L 137.749942 83.075398 
L 137.842019 83.510386 
L 137.886626 83.590121 
L 137.981614 84.072796 
L 138.036279 84.153962 
L 138.144367 84.521808 
L 138.180838 84.604135 
L 138.286702 85.1865 
L 138.320439 85.270577 
L 138.420955 85.99439 
L 138.448399 86.080643 
L 138.551027 86.603155 
L 138.583405 86.691085 
L 138.647652 87.000778 
L 138.70668 87.089821 
L 138.803895 87.674788 
L 138.864765 87.76575 
L 138.970311 88.409911 
L 138.990443 88.503013 
L 139.094914 88.878186 
L 139.143175 88.972678 
L 139.248951 89.836044 
L 139.282491 89.933443 
L 139.39358 90.524219 
L 139.396916 90.623762 
L 139.506178 90.974651 
L 139.577264 91.075623 
L 139.669881 91.380487 
L 139.713987 91.482764 
L 139.824923 92.260563 
L 139.853383 92.365728 
L 139.960763 92.843346 
L 140.027953 92.950468 
L 140.137213 93.491589 
L 140.162527 93.600933 
L 140.263312 94.377096 
L 140.294823 94.433272 
L 140.401516 94.772433 
L 140.410905 94.829315 
L 140.510483 95.461858 
L 140.560708 95.519993 
L 140.669319 96.107298 
L 140.679992 96.166632 
L 140.786336 96.766173 
L 140.808718 96.826756 
L 140.914127 97.562947 
L 140.966052 97.625077 
L 141.062435 98.507937 
L 141.122134 98.571951 
L 141.203165 99.088775 
L 141.248733 99.153976 
L 141.352664 99.416129 
L 141.367936 99.482008 
L 141.464264 100.014034 
L 141.494888 100.08117 
L 141.595305 100.691893 
L 141.631174 100.760484 
L 141.726429 101.524962 
L 141.75487 101.595384 
L 141.855462 102.164475 
L 141.897718 102.236336 
L 142.007224 102.670963 
L 142.023456 102.743984 
L 142.10993 103.11164 
L 142.199422 103.185686 
L 142.305115 103.784377 
L 142.362388 103.860015 
L 142.470344 104.549022 
L 142.515779 104.626513 
L 142.625309 105.253361 
L 142.654624 105.332597 
L 142.760336 106.217541 
L 142.780398 106.299231 
L 142.885772 107.044085 
L 142.904636 107.127938 
L 143.005407 107.721219 
L 143.054718 107.806888 
L 143.103542 108.238747 
L 143.253429 108.325831 
L 143.357083 108.853423 
L 143.41135 108.942216 
L 143.498816 109.570843 
L 143.573506 109.661675 
L 143.684393 110.3049 
L 143.711778 110.397866 
L 143.783992 110.961468 
L 143.837326 111.056385 
L 143.947542 111.438925 
L 144.014018 111.535287 
L 144.085982 112.021545 
L 144.160959 112.1197 
L 144.254981 113.017061 
L 144.306895 113.118357 
L 144.369794 113.526812 
L 144.50208 113.629754 
L 144.592279 114.044905 
L 144.634449 114.149549 
L 144.723965 114.891907 
L 144.794469 114.999394 
L 144.885673 115.542371 
L 144.968041 115.652093 
L 145.070082 116.999309 
L 145.143676 116.999309 
L 145.245063 117.345267 
L 145.257201 117.345267 
L 145.35196 117.812505 
L 145.394862 117.812505 
L 145.505449 118.647143 
L 145.506752 118.647143 
L 145.606882 119.628766 
L 145.638234 119.628766 
L 145.733504 120.513389 
L 145.750282 120.513389 
L 145.848076 121.160749 
L 145.884851 121.160749 
L 145.987507 121.821625 
L 146.005433 121.821625 
L 146.009768 122.089888 
L 146.131742 122.089888 
L 146.228356 123.047126 
L 146.254632 123.047126 
L 146.35368 124.177775 
L 146.376905 124.177775 
L 146.475652 125.201345 
L 146.544832 125.201345 
L 146.618071 125.953276 
L 146.698603 125.953276 
L 146.786867 126.879824 
L 146.834619 126.879824 
L 146.880915 127.1948 
L 146.947943 127.1948 
L 147.049708 127.99623 
L 147.121494 127.99623 
L 147.220171 128.985523 
L 147.311244 128.985523 
L 147.36175 129.492011 
L 147.422946 129.492011 
L 147.517192 130.180186 
L 147.567273 130.180186 
L 147.660614 130.883655 
L 147.713918 130.883655 
L 147.77992 131.603113 
L 147.828826 131.603113 
L 147.863341 132.339305 
L 147.97412 132.339305 
L 148.084889 132.902907 
L 148.105041 132.902907 
L 148.211304 133.865133 
L 148.269948 133.865133 
L 148.269948 134.061138 
L 148.403624 134.061138 
L 148.403624 134.258365 
L 148.537939 134.258365 
L 148.597506 134.857528 
L 148.680621 134.857528 
L 148.774367 136.090988 
L 148.819783 136.090988 
L 148.907672 137.156907 
L 148.933823 137.156907 
L 148.98053 138.036263 
L 149.06507 138.036263 
L 149.156636 138.485275 
L 149.197955 138.485275 
L 149.292641 139.636486 
L 149.388392 139.636486 
L 149.418704 140.108954 
L 149.660114 140.108954 
L 149.702723 140.588582 
L 149.775384 140.588582 
L 149.853717 141.321931 
L 149.906873 141.321931 
L 149.907994 141.820442 
L 150.029562 141.820442 
L 150.089987 142.841653 
L 150.176489 142.841653 
L 150.221897 143.364885 
L 150.305321 143.364885 
L 150.362051 143.896911 
L 150.421717 143.896911 
L 150.463848 144.438032 
L 150.542383 144.438032 
L 150.585965 144.988564 
L 150.714501 144.988564 
L 150.714501 145.267463 
L 151.011915 145.267463 
L 151.066922 146.119213 
L 151.170286 146.119213 
L 151.170286 146.4083 
L 151.416501 146.4083 
L 151.516533 147.894714 
L 151.664954 147.894714 
L 151.664954 148.20056 
L 151.834724 148.20056 
L 151.834724 148.50939 
L 151.976754 148.50939 
L 151.976754 148.821262 
L 152.145735 148.821262 
L 152.21359 149.775751 
L 152.32477 149.775751 
L 152.32477 150.100418 
L 152.479043 150.100418 
L 152.501276 150.759917 
L 152.634806 150.759917 
L 152.667391 151.775667 
L 153.025686 151.775667 
L 153.135052 152.825093 
L 153.396948 152.825093 
L 153.491922 153.544552 
L 153.509727 153.544552 
L 153.610226 154.655361 
L 153.65764 154.655361 
L 153.743384 155.418164 
L 153.926953 155.418164 
L 153.926953 155.806571 
L 154.124896 155.806571 
L 154.206403 156.597983 
L 154.423417 156.597983 
L 154.472806 157.409689 
L 154.534564 157.409689 
L 154.633734 159.098345 
L 154.721247 159.098345 
L 154.735018 159.977702 
L 155.010677 159.977702 
L 155.120681 161.344309 
L 155.208846 161.344309 
L 155.208846 161.813277 
L 155.499026 161.813277 
L 155.501057 162.772587 
L 155.686458 162.772587 
L 155.686458 163.263369 
L 155.864621 163.263369 
L 155.924139 164.268368 
L 156.101032 164.268368 
L 156.101032 164.783092 
L 156.489578 164.783092 
L 156.489578 165.306323 
L 156.623494 165.306323 
L 156.713545 167.490279 
L 156.843419 167.490279 
L 156.843419 168.060652 
L 157.021216 168.060652 
L 157.021216 168.64149 
L 157.336027 168.64149 
L 157.382119 169.836153 
L 157.541076 169.836153 
L 157.61788 171.717189 
L 157.696181 171.717189 
L 157.717323 173.03633 
L 158.204739 173.03633 
L 158.314528 174.412843 
L 158.719274 174.412843 
L 158.765496 175.851946 
L 159.06591 175.851946 
L 159.06591 176.596799 
L 159.192892 176.596799 
L 159.192892 177.359602 
L 159.461132 177.359602 
L 159.467812 178.942672 
L 159.600108 178.942672 
L 159.600108 179.764921 
L 159.896331 179.764921 
L 159.896331 180.609099 
L 160.190847 180.609099 
L 160.190847 181.476409 
L 160.352424 181.476409 
L 160.408796 184.230737 
L 160.472324 184.230737 
L 160.472324 185.204808 
L 160.875379 185.204808 
L 160.915631 187.247762 
L 161.0037 187.247762 
L 161.0037 188.320909 
L 161.542933 188.320909 
L 161.648979 191.777591 
L 162.041247 191.777591 
L 162.130275 194.311327 
L 162.287679 194.311327 
L 162.287679 195.658544 
L 162.593862 195.658544 
L 162.67306 200.082681 
L 163.520348 200.082681 
L 163.520348 201.70636 
L 164.310753 201.70636 
L 164.310753 203.417847 
L 164.743288 203.417847 
L 164.743288 205.227186 
L 165.271752 205.227186 
L 165.340339 209.1892 
L 166.475986 209.1892 
L 166.475986 211.373156 
L 166.830841 211.373156 
L 166.861325 216.252766 
L 166.969042 216.252766 
L 166.969042 219.007094 
L 167.315236 219.007094 
L 167.315236 222.024119 
L 167.787211 222.024119 
L 167.787211 225.359286 
L 167.940776 225.359286 
L 167.940776 229.087685 
L 168.509673 229.087685 
L 168.509673 233.314595 
L 169.586983 233.314595 
L 169.586983 238.194204 
L 170.634643 238.194204 
L 170.634643 243.965558 
L 174.629289 243.965558 
L 174.629289 251.029123 
L 177.821056 251.029123 
L 177.821056 260.135643 
L 180.916425 260.135643 
L 180.916425 272.970562 
L 182.386649 272.970562 
L 182.386649 294.912 
L 184.748008 294.912 
L 184.748008 294.912 
" clip-path="url(#p4d6a1d9584)" style="fill: none; stroke: #d62728; stroke-width: 1.5; stroke-linecap: square"/>
   </g>
   <g id="line2d_46">
    <path d="M 184.305753 41.472 
L 184.305753 41.482553 
L 195.41158 41.588281 
L 195.41158 41.598873 
L 199.759833 41.704991 
L 199.759833 41.715622 
L 201.785243 41.822132 
L 201.847561 41.843477 
L 203.308239 41.950419 
L 203.367259 41.971851 
L 204.406615 42.079228 
L 204.446201 42.100748 
L 205.877677 42.208564 
L 205.94146 42.230171 
L 206.833264 42.33843 
L 206.940808 42.37098 
L 207.744297 42.479722 
L 207.744297 42.490617 
L 208.798909 42.599771 
L 208.798909 42.610708 
L 209.828518 42.720278 
L 209.828518 42.731256 
L 210.740117 42.841245 
L 210.83811 42.896383 
L 211.511981 43.006948 
L 211.61022 43.051283 
L 212.341875 43.162391 
L 212.448353 43.218092 
L 212.950049 43.318601 
L 213.041224 43.374578 
L 213.634458 43.475586 
L 213.70542 43.531841 
L 214.170758 43.633353 
L 214.269519 43.68989 
L 214.531579 43.791911 
L 214.592282 43.814627 
L 215.220864 43.917051 
L 215.314303 43.939857 
L 215.745618 44.042688 
L 215.842076 44.111429 
L 216.324677 44.214819 
L 216.393058 44.260879 
L 216.824793 44.36476 
L 216.918085 44.445793 
L 217.43886 44.550284 
L 217.52463 44.608483 
L 217.807289 44.713513 
L 217.90964 44.795445 
L 218.209705 44.901098 
L 218.315913 44.959947 
L 218.544973 45.066151 
L 218.627725 45.149002 
L 218.844801 45.255843 
L 218.844801 45.267737 
L 219.167029 45.374981 
L 219.273451 45.446679 
L 219.560642 45.554532 
L 219.634502 45.61461 
L 219.996146 45.723037 
L 220.094172 45.783436 
L 220.257105 45.892444 
L 220.305742 45.916719 
L 220.620681 46.026188 
L 220.620681 46.038375 
L 220.888601 46.148267 
L 220.996594 46.246269 
L 221.437702 46.356886 
L 221.532092 46.406173 
L 221.722384 46.504979 
L 221.830331 46.591687 
L 222.017772 46.691075 
L 222.126661 46.75335 
L 222.375031 46.853247 
L 222.483383 46.953461 
L 222.664465 47.053992 
L 222.769874 47.116987 
L 222.922548 47.21804 
L 223.010185 47.268687 
L 223.296468 47.370226 
L 223.40221 47.421118 
L 223.644796 47.523148 
L 223.644796 47.535925 
L 223.935745 47.638327 
L 224.032054 47.702496 
L 224.161968 47.805439 
L 224.257494 47.831227 
L 224.525174 47.93459 
L 224.632273 47.999363 
L 224.774315 48.103277 
L 224.872288 48.207533 
L 225.004249 48.312134 
L 225.088921 48.403944 
L 225.310311 48.509197 
L 225.359843 48.548758 
L 225.608867 48.654494 
L 225.717908 48.760585 
L 225.97866 48.867032 
L 226.082234 48.947104 
L 226.276602 49.054181 
L 226.334589 49.094429 
L 226.506389 49.202007 
L 226.607622 49.309952 
L 226.815846 49.418266 
L 226.913417 49.513346 
L 227.080797 49.62236 
L 227.16781 49.704367 
L 227.517754 49.814042 
L 227.626481 49.896548 
L 227.86509 50.006891 
L 227.929062 50.062208 
L 228.11735 50.173131 
L 228.22188 50.242657 
L 228.313766 50.340249 
L 228.404849 50.382167 
L 228.505162 50.480191 
L 228.603094 50.564454 
L 228.747672 50.663045 
L 228.831344 50.747797 
L 229.086844 50.846962 
L 229.184726 50.946438 
L 229.288806 51.046229 
L 229.392491 51.103393 
L 229.587721 51.20368 
L 229.684289 51.26113 
L 229.841525 51.361918 
L 229.935804 51.434107 
L 230.071913 51.535449 
L 230.145265 51.578981 
L 230.34559 51.680788 
L 230.454539 51.768313 
L 230.66601 51.870732 
L 230.772141 52.002903 
L 230.888673 52.106085 
L 230.988065 52.268911 
L 231.093407 52.372965 
L 231.203215 52.552144 
L 231.302453 52.657135 
L 231.409887 52.822828 
L 231.493303 52.928722 
L 231.578314 53.004579 
L 231.784536 53.111084 
L 231.862061 53.217948 
L 232.092016 53.325175 
L 232.201578 53.386611 
L 232.335101 53.494411 
L 232.443884 53.664557 
L 232.559009 53.77331 
L 232.63279 53.835623 
L 232.785166 53.944966 
L 232.834898 54.0233 
L 233.067861 54.133294 
L 233.176744 54.212096 
L 233.333861 54.32275 
L 233.424577 54.433792 
L 233.522242 54.529282 
L 233.623923 54.657051 
L 233.708818 54.753217 
L 233.81835 54.849677 
L 233.969565 54.946431 
L 234.053559 55.075899 
L 234.255049 55.173349 
L 234.365043 55.30375 
L 234.520439 55.401904 
L 234.590107 55.516804 
L 234.781844 55.615622 
L 234.886274 55.698207 
L 234.978312 55.797594 
L 235.044281 55.913942 
L 235.14845 56.01401 
L 235.254363 56.198293 
L 235.302966 56.299266 
L 235.399101 56.451331 
L 235.539439 56.553115 
L 235.647494 56.706407 
L 235.751834 56.809016 
L 235.846527 56.929148 
L 236.048383 57.032483 
L 236.15549 57.136156 
L 236.272245 57.24017 
L 236.366616 57.379388 
L 236.529918 57.484206 
L 236.612448 57.642085 
L 236.790676 57.747778 
L 236.880933 57.853824 
L 237.127235 57.960227 
L 237.19761 58.084817 
L 237.357624 58.192 
L 237.464115 58.389451 
L 237.586491 58.497673 
L 237.673542 58.588141 
L 237.967525 58.697045 
L 238.07822 58.824575 
L 238.222256 58.934298 
L 238.330777 59.081188 
L 238.483276 59.191805 
L 238.571792 59.358458 
L 238.646501 59.451424 
L 238.715675 59.525993 
L 238.928537 59.619453 
L 239.033378 59.73197 
L 239.10397 59.826041 
L 239.204822 59.977138 
L 239.275678 60.071942 
L 239.385662 60.16703 
L 239.528572 60.262404 
L 239.625063 60.358067 
L 239.718027 60.45402 
L 239.79255 60.550264 
L 239.932139 60.646803 
L 240.027788 60.782452 
L 240.118193 60.879702 
L 240.212365 60.977252 
L 240.329265 61.075103 
L 240.42518 61.350706 
L 240.534657 61.44972 
L 240.629153 61.568948 
L 240.779097 61.668648 
L 240.839332 61.828824 
L 240.963244 61.929348 
L 241.072142 62.090852 
L 241.140393 62.192213 
L 241.241345 62.416354 
L 241.324571 62.518764 
L 241.406544 62.724583 
L 241.538054 62.827996 
L 241.609706 62.910971 
L 241.755568 63.014996 
L 241.843081 63.119364 
L 241.951416 63.224077 
L 242.05876 63.455673 
L 242.190323 63.561507 
L 242.264492 63.688976 
L 242.479888 63.795594 
L 242.5721 63.945465 
L 242.707451 64.052951 
L 242.798871 64.247352 
L 242.889749 64.35587 
L 242.98828 64.57403 
L 243.05076 64.683676 
L 243.149344 64.859903 
L 243.40554 64.970546 
L 243.490976 65.081577 
L 243.554999 65.170682 
L 243.631473 65.304813 
L 243.69511 65.39455 
L 243.798489 65.687966 
L 243.870506 65.778798 
L 243.97115 66.029937 
L 244.032034 66.121757 
L 244.103702 66.259988 
L 244.262232 66.352478 
L 244.355381 66.514989 
L 244.509997 66.608229 
L 244.611958 66.819027 
L 244.667161 66.913168 
L 244.775956 67.197282 
L 244.819246 67.292556 
L 244.925143 67.436007 
L 244.987225 67.532003 
L 245.089905 67.700701 
L 245.217598 67.797505 
L 245.313885 67.870302 
L 245.536976 67.967627 
L 245.642091 68.089705 
L 245.748737 68.187708 
L 245.855681 68.310639 
L 245.913872 68.409329 
L 246.014963 68.632513 
L 246.062603 68.732213 
L 246.153155 68.882355 
L 246.260625 68.982847 
L 246.369384 69.159478 
L 246.422522 69.260855 
L 246.525517 69.515726 
L 246.62971 69.618251 
L 246.7132 69.746877 
L 246.79414 69.850156 
L 246.896587 70.057729 
L 246.966586 70.162028 
L 247.065557 70.371663 
L 247.172623 70.477004 
L 247.27202 70.582696 
L 247.327283 70.688743 
L 247.425168 70.875183 
L 247.573767 70.982215 
L 247.675718 71.170397 
L 247.807053 71.278434 
L 247.913438 71.495621 
L 247.990486 71.604775 
L 248.094463 71.714308 
L 248.177263 71.82422 
L 248.264882 71.96215 
L 248.346455 72.072928 
L 248.453137 72.239825 
L 248.605048 72.323605 
L 248.713888 72.519958 
L 248.850751 72.604484 
L 248.938761 72.830995 
L 249.023802 72.916356 
L 249.122142 73.145118 
L 249.209163 73.231332 
L 249.315978 73.375546 
L 249.357758 73.46239 
L 249.433282 73.665959 
L 249.520692 73.753605 
L 249.520692 73.782874 
L 249.732697 73.870845 
L 249.767626 74.018008 
L 249.862526 74.106636 
L 249.967266 74.254902 
L 250.03915 74.344197 
L 250.149421 74.613601 
L 250.265206 74.703914 
L 250.350178 74.885317 
L 250.435602 74.976411 
L 250.526614 75.251273 
L 250.6826 75.343427 
L 250.780798 75.559501 
L 250.914362 75.652558 
L 251.013184 75.777061 
L 251.193186 75.870761 
L 251.303187 76.058996 
L 251.372917 76.153535 
L 251.46803 76.31173 
L 251.576894 76.407028 
L 251.685163 76.566499 
L 251.827569 76.662568 
L 251.908508 76.855586 
L 252.042427 76.952538 
L 252.153491 77.017338 
L 252.220725 77.114787 
L 252.310502 77.277872 
L 252.384135 77.376129 
L 252.436718 77.57356 
L 252.593124 77.67274 
L 252.698071 77.805465 
L 252.841855 77.905375 
L 252.951525 78.106146 
L 253.000383 78.207011 
L 253.108993 78.308199 
L 253.23177 78.409711 
L 253.29545 78.545568 
L 253.460589 78.647846 
L 253.516812 78.716215 
L 253.692316 78.819046 
L 253.785049 79.025715 
L 253.842859 79.129558 
L 253.923067 79.338272 
L 254.015415 79.443147 
L 254.120175 79.83069 
L 254.24266 79.937212 
L 254.350352 80.330889 
L 254.445798 80.439111 
L 254.515199 80.620307 
L 254.651942 80.729524 
L 254.75963 80.912395 
L 254.904306 81.022626 
L 254.97211 81.355643 
L 255.075411 81.430125 
L 255.081727 81.504783 
L 255.230968 81.579617 
L 255.322113 81.76748 
L 255.496137 81.842938 
L 255.559562 82.032375 
L 255.840747 82.108468 
L 255.911924 82.337852 
L 256.043089 82.414684 
L 256.147723 82.646305 
L 256.172137 82.723891 
L 256.172137 82.762755 
L 256.311382 82.840627 
L 256.420084 82.996947 
L 256.473021 83.075398 
L 256.581529 83.351516 
L 256.633733 83.430851 
L 256.734747 83.630064 
L 256.825243 83.710102 
L 256.925044 84.032291 
L 257.029762 84.113353 
L 257.072178 84.194623 
L 257.249439 84.276103 
L 257.352982 84.645379 
L 257.394512 84.728029 
L 257.446492 85.060802 
L 257.626135 85.144545 
L 257.720126 85.397112 
L 257.759042 85.48175 
L 257.842627 85.737032 
L 257.900734 85.822586 
L 257.994545 86.210464 
L 258.027293 86.297309 
L 258.132966 86.559281 
L 258.199957 86.647089 
L 258.308245 86.911985 
L 258.44694 87.000778 
L 258.547687 87.179115 
L 258.626887 87.268662 
L 258.650569 87.403459 
L 258.798373 87.493644 
L 258.860065 87.629405 
L 258.921302 87.720236 
L 259.023588 87.994305 
L 259.095659 88.086192 
L 259.204901 88.503013 
L 259.363664 88.59639 
L 259.472757 88.783975 
L 259.53605 88.878186 
L 259.646563 89.114947 
L 259.690648 89.210149 
L 259.770929 89.401417 
L 259.844995 89.497487 
L 259.949609 89.690504 
L 260.009289 89.787456 
L 260.111631 90.080107 
L 260.231486 90.178261 
L 260.311859 90.326066 
L 260.364629 90.424987 
L 260.432063 90.623762 
L 260.586895 90.72362 
L 260.652531 90.873999 
L 260.845782 90.974651 
L 260.935561 91.176918 
L 261.112678 91.278539 
L 261.162086 91.534027 
L 261.28013 91.636803 
L 261.382972 91.791594 
L 261.400547 91.895211 
L 261.484166 92.155745 
L 261.615279 92.260563 
L 261.715032 92.78992 
L 261.806154 92.896862 
L 261.89025 93.165808 
L 262.018757 93.27403 
L 262.109172 93.600933 
L 262.179277 93.710655 
L 262.288775 94.042122 
L 262.391967 94.097705 
L 262.486736 94.433272 
L 262.530456 94.489547 
L 262.530456 94.545922 
L 262.646516 94.602398 
L 262.646516 94.658975 
L 262.932946 94.715654 
L 263.023857 94.8863 
L 263.147091 94.943387 
L 263.237152 95.288089 
L 263.365178 95.345906 
L 263.463179 95.753609 
L 263.548361 95.812283 
L 263.634593 96.107298 
L 263.696278 96.166632 
L 263.787384 96.705705 
L 263.928747 96.766173 
L 264.039383 97.439054 
L 264.19568 97.50094 
L 264.266545 97.812199 
L 264.393042 97.87482 
L 264.502812 98.126549 
L 264.554241 98.189796 
L 264.640493 98.571951 
L 264.749282 98.636094 
L 264.857442 99.023709 
L 264.916584 99.088775 
L 264.967621 99.219311 
L 265.088221 99.284781 
L 265.185321 99.482008 
L 265.251531 99.548024 
L 265.353297 99.813475 
L 265.465895 99.880187 
L 265.57546 100.148449 
L 265.680968 100.215872 
L 265.780712 100.419005 
L 265.812671 100.487007 
L 265.86588 100.691893 
L 265.967746 100.760484 
L 266.050349 100.967154 
L 266.114737 101.036345 
L 266.220621 101.175182 
L 266.265677 101.244829 
L 266.317051 101.384586 
L 266.405562 101.454696 
L 266.49051 101.736701 
L 266.644009 101.807596 
L 266.730785 102.092777 
L 266.8215 102.164475 
L 266.889828 102.38055 
L 267.034523 102.452903 
L 267.132281 102.670963 
L 267.177695 102.743984 
L 267.21933 102.890534 
L 267.389298 102.964065 
L 267.444928 103.11164 
L 267.59674 103.185686 
L 267.637495 103.483616 
L 267.778484 103.558539 
L 267.848123 103.784377 
L 267.967314 103.860015 
L 268.063867 104.088022 
L 268.235658 104.164391 
L 268.315474 104.471721 
L 268.491734 104.549022 
L 268.578707 105.016836 
L 268.647063 105.095482 
L 268.739333 105.491667 
L 268.858112 105.571503 
L 268.965337 105.892874 
L 269.087317 105.973729 
L 269.115342 106.136062 
L 269.242987 106.217541 
L 269.350798 106.628115 
L 269.427936 106.710873 
L 269.521885 107.380841 
L 269.746372 107.465593 
L 269.775787 107.89279 
L 269.876199 107.978925 
L 269.954465 108.67658 
L 270.081789 108.764878 
L 270.188758 109.210101 
L 270.33663 109.299902 
L 270.401861 109.661675 
L 270.66568 109.752768 
L 270.707599 109.935744 
L 270.83364 110.02763 
L 270.881243 110.397866 
L 271.015872 110.491106 
L 271.021077 110.678413 
L 271.154015 110.772484 
L 271.2468 111.056385 
L 271.370401 111.151588 
L 271.471763 111.535287 
L 271.526931 111.631943 
L 271.590286 111.923694 
L 271.827215 112.021545 
L 271.918996 112.316927 
L 272.009054 112.416003 
L 272.109931 112.916089 
L 272.176743 113.017061 
L 272.273306 113.424203 
L 272.439511 113.526812 
L 272.454102 113.733033 
L 272.765468 113.836649 
L 272.827046 114.044905 
L 272.994425 114.149549 
L 273.049989 114.465573 
L 273.310001 114.57162 
L 273.379812 114.891907 
L 273.573028 114.999394 
L 273.669801 115.215468 
L 273.850021 115.324061 
L 273.850021 115.433028 
L 273.990767 115.542371 
L 273.990767 115.652093 
L 274.276813 115.762197 
L 274.347436 115.98356 
L 274.468381 115.98356 
L 274.575842 116.657092 
L 274.619741 116.657092 
L 274.729638 116.999309 
L 274.848782 116.999309 
L 274.940347 117.461432 
L 274.986786 117.461432 
L 275.070101 117.812505 
L 275.101154 117.812505 
L 275.132675 118.048736 
L 275.212471 118.048736 
L 275.281763 118.286743 
L 275.340102 118.286743 
L 275.43296 118.647143 
L 275.485648 118.647143 
L 275.485648 118.768194 
L 275.868687 118.768194 
L 275.934279 119.011694 
L 276.04136 119.011694 
L 276.092799 119.257081 
L 276.176592 119.257081 
L 276.282549 119.628766 
L 276.368012 119.628766 
L 276.469841 120.004868 
L 276.525572 120.004868 
L 276.555685 120.385491 
L 276.886715 120.385491 
L 276.948192 120.641807 
L 277.191455 120.641807 
L 277.283223 120.900215 
L 277.328926 120.900215 
L 277.425546 121.291825 
L 277.44836 121.291825 
L 277.537528 121.555617 
L 277.676409 121.555617 
L 277.759946 121.821625 
L 277.825325 121.821625 
L 277.926674 122.770663 
L 277.984397 122.770663 
L 278.092398 123.186268 
L 278.452065 123.186268 
L 278.560945 123.607402 
L 278.645607 123.607402 
L 278.645607 123.749035 
L 278.791838 123.749035 
L 278.89196 124.034215 
L 278.936375 124.034215 
L 278.936375 124.177775 
L 279.128703 124.177775 
L 279.199189 124.612401 
L 279.291472 124.612401 
L 279.399716 124.905503 
L 279.488404 124.905503 
L 279.596582 125.350309 
L 279.604946 125.350309 
L 279.682029 125.650357 
L 279.808067 125.650357 
L 279.856912 125.953276 
L 279.920713 125.953276 
L 280.002845 126.41316 
L 280.275141 126.41316 
L 280.314599 126.879824 
L 280.433848 126.879824 
L 280.492422 127.1948 
L 280.580167 127.1948 
L 280.614144 127.512941 
L 280.805083 127.512941 
L 280.805083 127.673219 
L 280.953662 127.673219 
L 281.04473 128.15898 
L 281.122356 128.15898 
L 281.194195 128.487012 
L 281.2403 128.487012 
L 281.2403 128.652312 
L 281.383851 128.652312 
L 281.485365 129.153453 
L 281.59582 129.153453 
L 281.653063 129.834228 
L 281.745891 129.834228 
L 281.745891 130.006734 
L 281.935632 130.006734 
L 282.006873 130.354593 
L 282.06286 130.354593 
L 282.130927 130.706317 
L 282.354559 130.706317 
L 282.388558 131.061992 
L 282.476116 131.061992 
L 282.582122 131.603113 
L 282.641287 131.603113 
L 282.641287 131.785562 
L 282.813964 131.785562 
L 282.87703 132.153645 
L 283.02627 132.153645 
L 283.053227 132.526059 
L 283.170494 132.526059 
L 283.238008 133.093026 
L 283.282869 133.093026 
L 283.387521 134.061138 
L 283.54971 134.061138 
L 283.54971 134.258365 
L 283.700148 134.258365 
L 283.8038 134.857528 
L 284.202907 134.857528 
L 284.202907 135.059795 
L 284.397432 135.059795 
L 284.415491 135.46825 
L 284.519953 135.46825 
L 284.519953 135.674471 
L 284.824486 135.674471 
L 284.935553 136.513058 
L 285.056406 136.513058 
L 285.056406 136.726222 
L 285.452657 136.726222 
L 285.549836 137.374466 
L 285.722512 137.374466 
L 285.819062 137.814124 
L 285.940316 137.814124 
L 286.006444 138.259973 
L 286.247394 138.259973 
L 286.304014 138.712192 
L 286.720563 138.712192 
L 286.720563 138.940748 
L 287.247785 138.940748 
L 287.33597 139.636486 
L 288.025598 139.636486 
L 288.056895 140.108954 
L 288.238253 140.108954 
L 288.266092 140.588582 
L 288.523336 140.588582 
L 288.606274 141.321931 
L 288.645351 141.321931 
L 288.645351 141.570205 
L 288.863859 141.570205 
L 288.863859 141.820442 
L 289.127127 141.820442 
L 289.21084 142.583245 
L 289.262683 142.583245 
L 289.311492 143.102188 
L 289.380664 143.102188 
L 289.481718 144.166315 
L 289.662778 144.166315 
L 289.662778 144.438032 
L 290.057303 144.438032 
L 290.159402 144.988564 
L 290.299409 144.988564 
L 290.299409 145.267463 
L 290.631282 145.267463 
L 290.631282 145.548841 
L 290.802612 145.548841 
L 290.885029 146.119213 
L 291.01372 146.119213 
L 291.01372 146.4083 
L 291.133899 146.4083 
L 291.221153 146.994517 
L 291.293444 146.994517 
L 291.293444 147.291747 
L 291.789275 147.291747 
L 291.789275 147.591795 
L 291.947758 147.591795 
L 291.947758 147.894714 
L 292.308674 147.894714 
L 292.361299 148.50939 
L 292.808534 148.50939 
L 292.808534 148.821262 
L 293.104429 148.821262 
L 293.172077 149.45438 
L 293.380295 149.45438 
L 293.45824 150.759917 
L 293.530133 150.759917 
L 293.530133 151.094892 
L 293.884682 151.094892 
L 293.984815 151.775667 
L 294.311266 151.775667 
L 294.311266 152.121624 
L 294.605696 152.121624 
L 294.605696 152.471405 
L 294.932914 152.471405 
L 294.932914 152.825093 
L 295.048306 152.825093 
L 295.048306 153.182779 
L 295.225504 153.182779 
L 295.225504 153.544552 
L 296.084812 153.544552 
L 296.084812 153.910507 
L 296.37586 153.910507 
L 296.37586 154.280743 
L 296.603817 154.280743 
L 296.603817 154.655361 
L 296.736999 154.655361 
L 296.844186 155.806571 
L 296.994014 155.806571 
L 296.994014 156.199804 
L 297.383757 156.199804 
L 297.441678 157.409689 
L 298.069463 157.409689 
L 298.069463 157.823483 
L 298.495796 157.823483 
L 298.589554 158.667661 
L 298.672696 158.667661 
L 298.672696 159.098345 
L 299.112132 159.098345 
L 299.112132 159.53497 
L 299.282655 159.53497 
L 299.282655 159.977702 
L 299.51238 159.977702 
L 299.544491 160.882186 
L 300.608688 160.882186 
L 300.714629 161.813277 
L 300.865945 161.813277 
L 300.910174 163.263369 
L 301.274427 163.263369 
L 301.274427 163.76188 
L 301.92952 163.76188 
L 301.92952 164.268368 
L 302.104482 164.268368 
L 302.104482 164.783092 
L 302.675357 164.783092 
L 302.675357 165.306323 
L 303.117424 165.306323 
L 303.117424 165.838349 
L 303.228592 165.838349 
L 303.291573 166.930003 
L 303.675284 166.930003 
L 303.675284 167.490279 
L 304.0295 167.490279 
L 304.0295 168.060652 
L 304.395148 168.060652 
L 304.396157 169.233186 
L 304.551695 169.233186 
L 304.551695 169.836153 
L 304.738723 169.836153 
L 304.738723 170.450828 
L 305.076236 170.450828 
L 305.076236 171.077677 
L 305.326511 171.077677 
L 305.377334 172.369889 
L 305.675777 172.369889 
L 305.675777 173.03633 
L 305.866062 173.03633 
L 305.866062 173.717105 
L 307.434413 173.717105 
L 307.434413 174.412843 
L 307.572485 174.412843 
L 307.572485 175.124217 
L 309.734696 175.124217 
L 309.734696 175.851946 
L 310.08912 175.851946 
L 310.08912 176.596799 
L 310.641912 176.596799 
L 310.70867 178.141242 
L 313.135885 178.141242 
L 313.244769 179.764921 
L 313.739168 179.764921 
L 313.739168 180.609099 
L 313.936093 180.609099 
L 313.936093 181.476409 
L 314.468528 181.476409 
L 314.468528 182.368152 
L 314.664293 182.368152 
L 314.664293 183.285747 
L 315.02036 183.285747 
L 315.02036 184.230737 
L 315.186135 184.230737 
L 315.186135 185.204808 
L 315.301703 185.204808 
L 315.301703 186.209806 
L 315.584757 186.209806 
L 315.584757 187.247762 
L 315.787298 187.247762 
L 315.787298 188.320909 
L 315.929395 188.320909 
L 315.929395 189.431718 
L 316.420527 189.431718 
L 316.420527 190.582928 
L 316.82539 190.582928 
L 316.82539 191.777591 
L 317.375097 191.777591 
L 317.375097 193.019115 
L 317.861046 193.019115 
L 317.861046 194.311327 
L 318.323337 194.311327 
L 318.386113 197.065655 
L 318.697023 197.065655 
L 318.697023 198.538237 
L 318.986671 198.538237 
L 318.986671 200.082681 
L 319.818365 200.082681 
L 319.818365 201.70636 
L 319.969481 201.70636 
L 319.969481 203.417847 
L 321.001796 203.417847 
L 321.001796 205.227186 
L 321.316559 205.227186 
L 321.316559 207.146246 
L 321.456598 207.146246 
L 321.456598 209.1892 
L 321.729795 209.1892 
L 321.729795 211.373156 
L 323.467749 211.373156 
L 323.467749 213.71903 
L 324.120234 213.71903 
L 324.120234 216.252766 
L 324.730771 216.252766 
L 324.730771 219.007094 
L 324.892716 219.007094 
L 324.892716 222.024119 
L 328.184563 222.024119 
L 328.184563 225.359286 
L 330.072716 225.359286 
L 330.072716 229.087685 
L 330.99733 229.087685 
L 330.99733 233.314595 
L 332.520795 233.314595 
L 332.520795 238.194204 
L 333.307442 238.194204 
L 333.307442 243.965558 
L 334.856534 243.965558 
L 334.856534 251.029123 
L 337.823247 251.029123 
L 337.823247 260.135643 
L 342.251622 260.135643 
L 342.251622 272.970562 
L 356.793165 272.970562 
L 356.793165 294.912 
L 398.487273 294.912 
L 398.487273 294.912 
" clip-path="url(#p4d6a1d9584)" style="fill: none; stroke: #2ca02c; stroke-width: 1.5; stroke-linecap: square"/>
   </g>
   <g id="line2d_47">
    <path d="M 73.832727 41.472 
L 73.856185 41.49311 
L 74.321269 41.598873 
L 74.42797 41.715622 
L 74.486705 41.822132 
L 74.590357 42.046977 
L 74.647526 42.15461 
L 74.757206 42.534233 
L 74.768703 42.643539 
L 74.870532 43.073473 
L 74.893856 43.173523 
L 75.003244 43.96268 
L 75.016474 44.065585 
L 75.126523 45.077974 
L 75.134661 45.184576 
L 75.245074 46.443189 
L 75.253254 46.542111 
L 75.363727 48.233651 
L 75.367451 48.338339 
L 75.478381 50.200923 
L 75.482775 50.298387 
L 75.592216 52.372965 
L 75.601995 52.477363 
L 75.712509 54.817491 
L 75.719017 54.914147 
L 75.829816 57.995774 
L 75.836844 58.102656 
L 75.947367 61.173257 
L 75.952909 61.271717 
L 76.062598 65.10383 
L 76.067899 65.192998 
L 76.177972 68.882355 
L 76.180891 68.982847 
L 76.291337 72.548108 
L 76.296502 72.632709 
L 76.407144 76.75893 
L 76.413258 76.855586 
L 76.524026 81.579617 
L 76.526055 81.654628 
L 76.635996 86.253857 
L 76.640525 86.340821 
L 76.750844 91.380487 
L 76.757852 91.482764 
L 76.868339 96.464983 
L 76.874511 96.524992 
L 76.985165 102.092777 
L 76.988188 102.164475 
L 77.097785 108.065296 
L 77.100715 108.151903 
L 77.211395 113.836649 
L 77.217924 113.940606 
L 77.32777 118.647143 
L 77.335757 118.647143 
L 77.444803 124.612401 
L 77.454278 124.612401 
L 77.564276 129.153453 
L 77.565776 129.153453 
L 77.672595 133.865133 
L 77.678627 133.865133 
L 77.78652 138.036263 
L 77.794205 138.036263 
L 77.896 142.326929 
L 77.907796 142.326929 
L 78.013416 147.291747 
L 78.02271 147.291747 
L 78.131989 154.280743 
L 78.13745 154.280743 
L 78.239203 160.426714 
L 78.250452 160.426714 
L 78.361482 166.930003 
L 78.367811 166.930003 
L 78.450647 172.369889 
L 78.484601 172.369889 
L 78.578604 178.942672 
L 78.595939 178.942672 
L 78.69311 184.230737 
L 78.708299 184.230737 
L 78.79619 191.777591 
L 78.820136 191.777591 
L 78.844069 195.658544 
L 78.947993 195.658544 
L 79.038444 209.1892 
L 79.079684 209.1892 
L 79.190653 219.007094 
L 79.207701 219.007094 
L 79.207701 222.024119 
L 79.431129 222.024119 
L 79.501528 243.965558 
L 79.628828 243.965558 
L 79.628828 251.029123 
L 80.289321 251.029123 
L 80.289321 260.135643 
L 80.402963 260.135643 
L 80.402963 272.970562 
L 80.744231 272.970562 
L 80.744231 294.912 
L 80.928813 294.912 
L 80.928813 294.912 
" clip-path="url(#p4d6a1d9584)" style="fill: none; stroke: #ff7f0e; stroke-width: 1.5; stroke-linecap: square"/>
   </g>
   <g id="line2d_48">
    <path d="M 116.099599 41.472 
L 116.099599 41.482553 
L 120.122774 41.588281 
L 120.122774 41.598873 
L 122.487983 41.704991 
L 122.563211 41.736895 
L 123.380154 41.843477 
L 123.402474 41.864837 
L 124.249172 41.971851 
L 124.345852 42.014758 
L 125.22857 42.122282 
L 125.332518 42.165393 
L 125.594324 42.27343 
L 125.594324 42.284254 
L 126.05214 42.392698 
L 126.151779 42.44706 
L 126.520456 42.556064 
L 126.594563 42.621648 
L 126.948863 42.731256 
L 127.057294 42.852265 
L 127.271355 42.962676 
L 127.290417 42.995874 
L 127.557926 43.106788 
L 127.66411 43.162391 
L 127.840134 43.262723 
L 127.91515 43.318601 
L 128.056602 43.419431 
L 128.147245 43.509327 
L 128.314943 43.610767 
L 128.391914 43.68989 
L 128.529176 43.791911 
L 128.622926 43.894262 
L 128.732259 43.996944 
L 128.820139 44.065585 
L 128.956234 44.168826 
L 129.060154 44.318549 
L 129.247986 44.42262 
L 129.350828 44.538657 
L 129.41469 44.643455 
L 129.506686 44.760305 
L 129.680293 44.865841 
L 129.770533 45.054333 
L 129.871701 45.160855 
L 129.982059 45.315356 
L 130.082902 45.422762 
L 130.186526 45.554532 
L 130.291284 45.662754 
L 130.382325 45.759262 
L 130.495517 45.868188 
L 130.605845 45.941013 
L 130.67379 46.050566 
L 130.783975 46.246269 
L 130.945295 46.356886 
L 131.037545 46.492611 
L 131.164175 46.591687 
L 131.274251 46.803259 
L 131.393646 46.903314 
L 131.488811 47.116987 
L 131.578403 47.21804 
L 131.676678 47.408388 
L 131.74235 47.510377 
L 131.846775 47.65115 
L 131.937923 47.753926 
L 132.025512 47.895789 
L 132.121902 47.999363 
L 132.229827 48.207533 
L 132.264569 48.312134 
L 132.358803 48.469687 
L 132.425111 48.575159 
L 132.527106 48.707495 
L 132.611131 48.813764 
L 132.719179 48.987215 
L 132.79863 49.094429 
L 132.903811 49.323471 
L 133.001039 49.431832 
L 133.097095 49.62236 
L 133.180147 49.73175 
L 133.284637 49.869022 
L 133.338839 49.979269 
L 133.444757 50.214828 
L 133.50382 50.312335 
L 133.614693 50.57852 
L 133.667062 50.677155 
L 133.777268 50.875352 
L 133.83989 50.974918 
L 133.935413 51.174994 
L 134.032488 51.275508 
L 134.142566 51.520952 
L 134.183639 51.622572 
L 134.286112 51.841436 
L 134.340995 51.944092 
L 134.423105 52.165197 
L 134.506517 52.268911 
L 134.598161 52.567121 
L 134.70199 52.672162 
L 134.809562 52.913573 
L 134.86576 53.019772 
L 134.97498 53.309835 
L 135.057726 53.417373 
L 135.158402 53.7422 
L 135.211129 53.85122 
L 135.321486 54.0233 
L 135.362873 54.133294 
L 135.472501 54.386155 
L 135.516548 54.481501 
L 135.626306 54.721129 
L 135.66336 54.817491 
L 135.764801 55.222186 
L 135.833069 55.320088 
L 135.943357 55.71475 
L 136.025282 55.814189 
L 136.13156 56.181496 
L 136.184373 56.282415 
L 136.293306 56.75767 
L 136.34704 56.860445 
L 136.438798 57.20546 
L 136.519063 57.309702 
L 136.619373 57.554277 
L 136.699436 57.659676 
L 136.805595 57.995774 
L 136.888542 58.102656 
L 136.993711 58.533829 
L 137.047405 58.642546 
L 137.150993 58.989302 
L 137.201909 59.099597 
L 137.304544 59.414205 
L 137.398133 59.507334 
L 137.496521 59.863748 
L 137.559993 59.958212 
L 137.669751 60.262404 
L 137.719795 60.358067 
L 137.814588 60.782452 
L 137.864492 60.879702 
L 137.972547 61.311187 
L 138.011278 61.410077 
L 138.115964 61.788704 
L 138.161195 61.8891 
L 138.252957 62.151629 
L 138.328007 62.253185 
L 138.432116 62.600931 
L 138.466658 62.703941 
L 138.576132 63.245061 
L 138.604387 63.350192 
L 138.70792 63.73158 
L 138.735352 63.838342 
L 138.846404 64.139204 
L 138.869802 64.247352 
L 138.973755 64.639772 
L 139.029247 64.749646 
L 139.13129 65.126098 
L 139.171908 65.21533 
L 139.274061 65.507081 
L 139.299108 65.597394 
L 139.401622 66.075814 
L 139.450336 66.167767 
L 139.556071 66.514989 
L 139.579121 66.608229 
L 139.687727 67.078591 
L 139.709152 67.173508 
L 139.809851 67.483969 
L 139.84834 67.580111 
L 139.957817 68.040817 
L 139.988718 68.138668 
L 140.098762 68.58278 
L 140.116469 68.682324 
L 140.221874 69.184792 
L 140.246579 69.28625 
L 140.357577 69.618251 
L 140.389163 69.72111 
L 140.487074 70.057729 
L 140.511103 70.162028 
L 140.614102 70.688743 
L 140.659501 70.795145 
L 140.762236 71.143446 
L 140.787944 71.25139 
L 140.897954 71.686889 
L 140.923936 71.796706 
L 141.020859 72.407607 
L 141.056452 72.491833 
L 141.167493 72.745863 
L 141.207968 72.830995 
L 141.305523 73.375546 
L 141.353075 73.46239 
L 141.463019 73.841494 
L 141.494348 73.929628 
L 141.603879 74.403866 
L 141.62209 74.493582 
L 141.710074 75.098277 
L 141.83345 75.189986 
L 141.933946 75.777061 
L 141.97081 75.870761 
L 142.077088 76.185111 
L 142.090718 76.280028 
L 142.200132 76.726776 
L 142.223237 76.823334 
L 142.332048 77.474691 
L 142.359586 77.57356 
L 142.452749 78.005601 
L 142.519625 78.106146 
L 142.62591 78.819046 
L 142.685486 78.922212 
L 142.796063 79.40815 
L 142.824346 79.513258 
L 142.921525 79.937212 
L 142.94979 80.044094 
L 143.04903 80.366922 
L 143.110251 80.475267 
L 143.206868 80.949096 
L 143.249486 81.059456 
L 143.359539 81.504783 
L 143.392657 81.579617 
L 143.495699 81.880735 
L 143.517467 81.956464 
L 143.626392 82.491703 
L 143.667787 82.56891 
L 143.777453 83.154043 
L 143.806362 83.232884 
L 143.885865 83.470594 
L 143.978676 83.550228 
L 144.086686 83.991837 
L 144.126437 84.072796 
L 144.226016 84.604135 
L 144.292705 84.686677 
L 144.401717 85.102646 
L 144.426238 85.1865 
L 144.534299 85.524154 
L 144.579243 85.609134 
L 144.690171 86.080643 
L 144.72911 86.167131 
L 144.835788 87.179115 
L 144.857781 87.268662 
L 144.95711 87.76575 
L 145.008045 87.856974 
L 145.095263 88.409911 
L 145.149205 88.503013 
L 145.254844 88.878186 
L 145.302495 88.972678 
L 145.374856 89.162512 
L 145.473178 89.257858 
L 145.570049 89.593848 
L 145.591427 89.690504 
L 145.69771 90.178261 
L 145.746892 90.276721 
L 145.840986 90.72362 
L 145.872848 90.823793 
L 145.979716 91.278539 
L 146.025617 91.380487 
L 146.116436 91.999167 
L 146.165044 92.103467 
L 146.274602 92.577113 
L 146.326298 92.683338 
L 146.437296 93.27403 
L 146.45408 93.382623 
L 146.558609 93.931247 
L 146.586841 94.042122 
L 146.674073 94.545922 
L 146.710912 94.602398 
L 146.819587 95.172771 
L 146.833269 95.230377 
L 146.938478 95.636586 
L 146.971264 95.695043 
L 147.070973 96.464983 
L 147.087454 96.524992 
L 147.198559 96.766173 
L 147.247836 96.826756 
L 147.351795 97.562947 
L 147.368466 97.625077 
L 147.470143 98.316669 
L 147.550094 98.380297 
L 147.652232 98.958776 
L 147.714732 99.023709 
L 147.801064 99.482008 
L 147.842349 99.548024 
L 147.934233 100.351149 
L 147.98606 100.419005 
L 148.097158 101.036345 
L 148.142583 101.105687 
L 148.250592 101.524962 
L 148.26292 101.595384 
L 148.37241 101.949865 
L 148.389603 102.02124 
L 148.49903 102.743984 
L 148.549315 102.817174 
L 148.650086 103.11164 
L 148.679207 103.185686 
L 148.763393 103.633639 
L 148.814338 103.708918 
L 148.909959 104.317683 
L 148.938758 104.394609 
L 149.045676 104.938385 
L 149.11208 105.016836 
L 149.2115 105.491667 
L 149.266206 105.571503 
L 149.373794 105.973729 
L 149.418718 106.054791 
L 149.52562 107.044085 
L 149.573393 107.127938 
L 149.679864 107.380841 
L 149.714426 107.465593 
L 149.804677 108.151903 
L 149.870164 108.238747 
L 149.974978 108.853423 
L 150.03421 108.942216 
L 150.140517 109.752768 
L 150.167675 109.844124 
L 150.272964 110.678413 
L 150.390137 110.772484 
L 150.463509 110.961468 
L 150.555747 111.056385 
L 150.666074 111.631943 
L 150.695702 111.728895 
L 150.800847 112.416003 
L 150.867158 112.51539 
L 150.944835 113.219978 
L 150.995228 113.321926 
L 151.099619 113.733033 
L 151.133339 113.836649 
L 151.229601 114.465573 
L 151.280125 114.57162 
L 151.38661 114.999394 
L 151.47725 115.107247 
L 151.584733 115.98356 
L 151.63876 115.98356 
L 151.747909 116.657092 
L 151.779466 116.657092 
L 151.88172 117.345267 
L 151.890867 117.345267 
L 151.996969 117.9304 
L 152.043485 117.9304 
L 152.07283 118.647143 
L 152.198472 118.647143 
L 152.198472 118.768194 
L 152.313088 118.768194 
L 152.395036 119.380492 
L 152.468928 119.380492 
L 152.559838 120.004868 
L 152.644996 120.004868 
L 152.743531 120.258107 
L 152.797517 120.258107 
L 152.877094 120.641807 
L 152.993464 120.641807 
L 153.091472 121.291825 
L 153.108464 121.291825 
L 153.193885 121.688342 
L 153.234604 121.688342 
L 153.332378 122.089888 
L 153.447979 122.089888 
L 153.531191 122.633331 
L 153.577871 122.633331 
L 153.66873 124.177775 
L 153.707664 124.177775 
L 153.814482 124.466862 
L 153.923821 124.466862 
L 154.022156 124.905503 
L 154.085761 124.905503 
L 154.160907 125.801454 
L 154.201219 125.801454 
L 154.201219 125.953276 
L 154.318159 125.953276 
L 154.42359 127.03692 
L 154.460165 127.03692 
L 154.519803 127.353471 
L 154.580568 127.353471 
L 154.634341 127.673219 
L 154.762557 127.673219 
L 154.850445 127.99623 
L 154.928105 127.99623 
L 155.02204 128.652312 
L 155.099705 128.652312 
L 155.206096 129.153453 
L 155.215408 129.153453 
L 155.276601 129.492011 
L 155.495913 129.492011 
L 155.59899 130.354593 
L 155.635197 130.354593 
L 155.730565 131.785562 
L 155.807382 131.785562 
L 155.911981 132.153645 
L 155.940384 132.153645 
L 156.035578 133.093026 
L 156.13768 133.093026 
L 156.247388 134.258365 
L 156.262657 134.258365 
L 156.356077 135.059795 
L 156.440483 135.059795 
L 156.543416 135.46825 
L 156.581271 135.46825 
L 156.66438 136.301319 
L 156.79362 136.301319 
L 156.895471 137.156907 
L 156.973322 137.156907 
L 157.053492 137.593532 
L 157.150226 137.593532 
L 157.252357 139.170966 
L 157.262022 139.170966 
L 157.323681 140.108954 
L 157.386091 140.108954 
L 157.496364 140.831149 
L 157.599376 140.831149 
L 157.708999 142.072673 
L 157.764345 142.072673 
L 157.855398 143.102188 
L 157.905121 143.102188 
L 157.997779 144.166315 
L 158.062876 144.166315 
L 158.062876 144.438032 
L 158.180043 144.438032 
L 158.279719 144.988564 
L 158.317273 144.988564 
L 158.317273 145.267463 
L 158.435652 145.267463 
L 158.461176 146.4083 
L 158.781426 146.4083 
L 158.781426 146.700051 
L 158.92408 146.700051 
L 158.976857 147.291747 
L 159.202745 147.291747 
L 159.207536 147.894714 
L 159.456618 147.894714 
L 159.456618 148.20056 
L 159.576224 148.20056 
L 159.587537 148.821262 
L 159.731868 148.821262 
L 159.731868 149.136238 
L 159.940666 149.136238 
L 160.021799 149.775751 
L 160.111988 149.775751 
L 160.198722 150.759917 
L 160.303736 150.759917 
L 160.31482 151.433449 
L 160.492609 151.433449 
L 160.569941 152.121624 
L 160.869766 152.121624 
L 160.906333 153.910507 
L 161.098641 153.910507 
L 161.098641 154.280743 
L 161.381659 154.280743 
L 161.381659 154.655361 
L 161.517506 154.655361 
L 161.59183 155.806571 
L 161.752739 155.806571 
L 161.752739 156.199804 
L 162.049829 156.199804 
L 162.136501 157.409689 
L 162.458211 157.409689 
L 162.511865 159.098345 
L 162.624669 159.098345 
L 162.624669 159.53497 
L 162.900442 159.53497 
L 162.951808 160.426714 
L 163.085588 160.426714 
L 163.095794 161.344309 
L 163.281552 161.344309 
L 163.281552 161.813277 
L 163.493866 161.813277 
L 163.493866 162.289298 
L 163.740179 162.289298 
L 163.850026 163.76188 
L 164.098346 163.76188 
L 164.187001 165.306323 
L 164.350884 165.306323 
L 164.45381 168.060652 
L 164.694346 168.060652 
L 164.726856 169.233186 
L 164.995828 169.233186 
L 164.995828 169.836153 
L 165.195907 169.836153 
L 165.195907 170.450828 
L 165.603373 170.450828 
L 165.651685 171.717189 
L 165.755636 171.717189 
L 165.755636 172.369889 
L 166.191588 172.369889 
L 166.287625 173.717105 
L 166.397793 173.717105 
L 166.397793 174.412843 
L 166.510736 174.412843 
L 166.510736 175.124217 
L 166.646292 175.124217 
L 166.646292 175.851946 
L 166.783372 175.851946 
L 166.876191 177.359602 
L 167.095228 177.359602 
L 167.115686 178.942672 
L 167.238624 178.942672 
L 167.303357 181.476409 
L 167.454621 181.476409 
L 167.498455 183.285747 
L 167.651973 183.285747 
L 167.651973 184.230737 
L 167.88631 184.230737 
L 167.88631 185.204808 
L 168.064857 185.204808 
L 168.064857 186.209806 
L 168.893005 186.209806 
L 168.893005 187.247762 
L 169.031477 187.247762 
L 169.092356 190.582928 
L 169.661872 190.582928 
L 169.66886 193.019115 
L 169.841976 193.019115 
L 169.841976 194.311327 
L 170.022072 194.311327 
L 170.063214 197.065655 
L 170.288001 197.065655 
L 170.288001 198.538237 
L 170.599323 198.538237 
L 170.599323 200.082681 
L 170.800988 200.082681 
L 170.853026 203.417847 
L 171.325312 203.417847 
L 171.325312 205.227186 
L 171.525462 205.227186 
L 171.525462 207.146246 
L 171.727483 207.146246 
L 171.727483 209.1892 
L 172.572879 209.1892 
L 172.572879 211.373156 
L 172.932155 211.373156 
L 172.932155 213.71903 
L 173.705788 213.71903 
L 173.789279 219.007094 
L 173.850569 219.007094 
L 173.850569 222.024119 
L 175.587975 222.024119 
L 175.587975 225.359286 
L 176.322159 225.359286 
L 176.322159 229.087685 
L 176.927157 229.087685 
L 176.927157 233.314595 
L 177.457755 233.314595 
L 177.457755 238.194204 
L 179.052922 238.194204 
L 179.134262 251.029123 
L 185.449951 251.029123 
L 185.449951 260.135643 
L 187.974068 260.135643 
L 187.974068 272.970562 
L 188.694559 272.970562 
L 188.694559 294.912 
L 193.155447 294.912 
L 193.155447 294.912 
" clip-path="url(#p4d6a1d9584)" style="fill: none; stroke: #1f77b4; stroke-width: 1.5; stroke-linecap: square"/>
   </g>
   <g id="patch_3">
    <path d="M 57.6 307.584 
L 57.6 41.472 
" style="fill: none; stroke: #000000; stroke-width: 0.8; stroke-linejoin: miter; stroke-linecap: square"/>
   </g>
   <g id="patch_4">
    <path d="M 414.72 307.584 
L 414.72 41.472 
" style="fill: none; stroke: #000000; stroke-width: 0.8; stroke-linejoin: miter; stroke-linecap: square"/>
   </g>
   <g id="patch_5">
    <path d="M 57.6 307.584 
L 414.72 307.584 
" style="fill: none; stroke: #000000; stroke-width: 0.8; stroke-linejoin: miter; stroke-linecap: square"/>
   </g>
   <g id="patch_6">
    <path d="M 57.6 41.472 
L 414.72 41.472 
" style="fill: none; stroke: #000000; stroke-width: 0.8; stroke-linejoin: miter; stroke-linecap: square"/>
   </g>
   <g id="legend_1">
    <g id="patch_7">
     <path d="M 259.710625 302.584 
L 407.72 302.584 
Q 409.72 302.584 409.72 300.584 
L 409.72 212.124625 
Q 409.72 210.124625 407.72 210.124625 
L 259.710625 210.124625 
Q 257.710625 210.124625 257.710625 212.124625 
L 257.710625 300.584 
Q 257.710625 302.584 259.710625 302.584 
z
" style="fill: #ffffff; opacity: 0.8; stroke: #cccccc; stroke-linejoin: miter"/>
    </g>
    <g id="text_15">
     <!-- dataset -->
     <g transform="translate(314.811406 221.723062) scale(0.1 -0.1)">
      <defs>
       <path id="DejaVuSans-61" d="M 2194 1759 
Q 1497 1759 1228 1600 
Q 959 1441 959 1056 
Q 959 750 1161 570 
Q 1363 391 1709 391 
Q 2188 391 2477 730 
Q 2766 1069 2766 1631 
L 2766 1759 
L 2194 1759 
z
M 3341 1997 
L 3341 0 
L 2766 0 
L 2766 531 
Q 2569 213 2275 61 
Q 1981 -91 1556 -91 
Q 1019 -91 701 211 
Q 384 513 384 1019 
Q 384 1609 779 1909 
Q 1175 2209 1959 2209 
L 2766 2209 
L 2766 2266 
Q 2766 2663 2505 2880 
Q 2244 3097 1772 3097 
Q 1472 3097 1187 3025 
Q 903 2953 641 2809 
L 641 3341 
Q 956 3463 1253 3523 
Q 1550 3584 1831 3584 
Q 2591 3584 2966 3190 
Q 3341 2797 3341 1997 
z
" transform="scale(0.015625)"/>
       <path id="DejaVuSans-65" d="M 3597 1894 
L 3597 1613 
L 953 1613 
Q 991 1019 1311 708 
Q 1631 397 2203 397 
Q 2534 397 2845 478 
Q 3156 559 3463 722 
L 3463 178 
Q 3153 47 2828 -22 
Q 2503 -91 2169 -91 
Q 1331 -91 842 396 
Q 353 884 353 1716 
Q 353 2575 817 3079 
Q 1281 3584 2069 3584 
Q 2775 3584 3186 3129 
Q 3597 2675 3597 1894 
z
M 3022 2063 
Q 3016 2534 2758 2815 
Q 2500 3097 2075 3097 
Q 1594 3097 1305 2825 
Q 1016 2553 972 2059 
L 3022 2063 
z
" transform="scale(0.015625)"/>
      </defs>
      <use xlink:href="#DejaVuSans-64"/>
      <use xlink:href="#DejaVuSans-61" x="63.476562"/>
      <use xlink:href="#DejaVuSans-74" x="124.755859"/>
      <use xlink:href="#DejaVuSans-61" x="163.964844"/>
      <use xlink:href="#DejaVuSans-73" x="225.244141"/>
      <use xlink:href="#DejaVuSans-65" x="277.34375"/>
      <use xlink:href="#DejaVuSans-74" x="338.867188"/>
     </g>
    </g>
    <g id="line2d_49">
     <path d="M 261.710625 232.901187 
L 271.710625 232.901187 
L 271.710625 232.901187 
L 281.710625 232.901187 
L 281.710625 232.901187 
" style="fill: none; stroke: #1f77b4; stroke-width: 1.5; stroke-linecap: square"/>
    </g>
    <g id="text_16">
     <!-- Ecoli_10NN -->
     <g transform="translate(289.710625 236.401187) scale(0.1 -0.1)">
      <defs>
       <path id="DejaVuSans-45" d="M 628 4666 
L 3578 4666 
L 3578 4134 
L 1259 4134 
L 1259 2753 
L 3481 2753 
L 3481 2222 
L 1259 2222 
L 1259 531 
L 3634 531 
L 3634 0 
L 628 0 
L 628 4666 
z
" transform="scale(0.015625)"/>
       <path id="DejaVuSans-63" d="M 3122 3366 
L 3122 2828 
Q 2878 2963 2633 3030 
Q 2388 3097 2138 3097 
Q 1578 3097 1268 2742 
Q 959 2388 959 1747 
Q 959 1106 1268 751 
Q 1578 397 2138 397 
Q 2388 397 2633 464 
Q 2878 531 3122 666 
L 3122 134 
Q 2881 22 2623 -34 
Q 2366 -91 2075 -91 
Q 1284 -91 818 406 
Q 353 903 353 1747 
Q 353 2603 823 3093 
Q 1294 3584 2113 3584 
Q 2378 3584 2631 3529 
Q 2884 3475 3122 3366 
z
" transform="scale(0.015625)"/>
       <path id="DejaVuSans-6c" d="M 603 4863 
L 1178 4863 
L 1178 0 
L 603 0 
L 603 4863 
z
" transform="scale(0.015625)"/>
       <path id="DejaVuSans-5f" d="M 3263 -1063 
L 3263 -1509 
L -63 -1509 
L -63 -1063 
L 3263 -1063 
z
" transform="scale(0.015625)"/>
       <path id="DejaVuSans-4e" d="M 628 4666 
L 1478 4666 
L 3547 763 
L 3547 4666 
L 4159 4666 
L 4159 0 
L 3309 0 
L 1241 3903 
L 1241 0 
L 628 0 
L 628 4666 
z
" transform="scale(0.015625)"/>
      </defs>
      <use xlink:href="#DejaVuSans-45"/>
      <use xlink:href="#DejaVuSans-63" x="63.183594"/>
      <use xlink:href="#DejaVuSans-6f" x="118.164062"/>
      <use xlink:href="#DejaVuSans-6c" x="179.345703"/>
      <use xlink:href="#DejaVuSans-69" x="207.128906"/>
      <use xlink:href="#DejaVuSans-5f" x="234.912109"/>
      <use xlink:href="#DejaVuSans-31" x="284.912109"/>
      <use xlink:href="#DejaVuSans-30" x="348.535156"/>
      <use xlink:href="#DejaVuSans-4e" x="412.158203"/>
      <use xlink:href="#DejaVuSans-4e" x="486.962891"/>
     </g>
    </g>
    <g id="line2d_50">
     <path d="M 261.710625 247.857438 
L 271.710625 247.857438 
L 271.710625 247.857438 
L 281.710625 247.857438 
L 281.710625 247.857438 
" style="fill: none; stroke: #ff7f0e; stroke-width: 1.5; stroke-linecap: square"/>
    </g>
    <g id="text_17">
     <!-- mnist_test_norm_10NN -->
     <g transform="translate(289.710625 251.357438) scale(0.1 -0.1)">
      <defs>
       <path id="DejaVuSans-6d" d="M 3328 2828 
Q 3544 3216 3844 3400 
Q 4144 3584 4550 3584 
Q 5097 3584 5394 3201 
Q 5691 2819 5691 2113 
L 5691 0 
L 5113 0 
L 5113 2094 
Q 5113 2597 4934 2840 
Q 4756 3084 4391 3084 
Q 3944 3084 3684 2787 
Q 3425 2491 3425 1978 
L 3425 0 
L 2847 0 
L 2847 2094 
Q 2847 2600 2669 2842 
Q 2491 3084 2119 3084 
Q 1678 3084 1418 2786 
Q 1159 2488 1159 1978 
L 1159 0 
L 581 0 
L 581 3500 
L 1159 3500 
L 1159 2956 
Q 1356 3278 1631 3431 
Q 1906 3584 2284 3584 
Q 2666 3584 2933 3390 
Q 3200 3197 3328 2828 
z
" transform="scale(0.015625)"/>
      </defs>
      <use xlink:href="#DejaVuSans-6d"/>
      <use xlink:href="#DejaVuSans-6e" x="97.412109"/>
      <use xlink:href="#DejaVuSans-69" x="160.791016"/>
      <use xlink:href="#DejaVuSans-73" x="188.574219"/>
      <use xlink:href="#DejaVuSans-74" x="240.673828"/>
      <use xlink:href="#DejaVuSans-5f" x="279.882812"/>
      <use xlink:href="#DejaVuSans-74" x="329.882812"/>
      <use xlink:href="#DejaVuSans-65" x="369.091797"/>
      <use xlink:href="#DejaVuSans-73" x="430.615234"/>
      <use xlink:href="#DejaVuSans-74" x="482.714844"/>
      <use xlink:href="#DejaVuSans-5f" x="521.923828"/>
      <use xlink:href="#DejaVuSans-6e" x="571.923828"/>
      <use xlink:href="#DejaVuSans-6f" x="635.302734"/>
      <use xlink:href="#DejaVuSans-72" x="696.484375"/>
      <use xlink:href="#DejaVuSans-6d" x="735.847656"/>
      <use xlink:href="#DejaVuSans-5f" x="833.259766"/>
      <use xlink:href="#DejaVuSans-31" x="883.259766"/>
      <use xlink:href="#DejaVuSans-30" x="946.882812"/>
      <use xlink:href="#DejaVuSans-4e" x="1010.505859"/>
      <use xlink:href="#DejaVuSans-4e" x="1085.310547"/>
     </g>
    </g>
    <g id="line2d_51">
     <path d="M 261.710625 262.813688 
L 271.710625 262.813688 
L 271.710625 262.813688 
L 281.710625 262.813688 
L 281.710625 262.813688 
" style="fill: none; stroke: #2ca02c; stroke-width: 1.5; stroke-linecap: square"/>
    </g>
    <g id="text_18">
     <!-- Glass_10NN -->
     <g transform="translate(289.710625 266.313688) scale(0.1 -0.1)">
      <defs>
       <path id="DejaVuSans-47" d="M 3809 666 
L 3809 1919 
L 2778 1919 
L 2778 2438 
L 4434 2438 
L 4434 434 
Q 4069 175 3628 42 
Q 3188 -91 2688 -91 
Q 1594 -91 976 548 
Q 359 1188 359 2328 
Q 359 3472 976 4111 
Q 1594 4750 2688 4750 
Q 3144 4750 3555 4637 
Q 3966 4525 4313 4306 
L 4313 3634 
Q 3963 3931 3569 4081 
Q 3175 4231 2741 4231 
Q 1884 4231 1454 3753 
Q 1025 3275 1025 2328 
Q 1025 1384 1454 906 
Q 1884 428 2741 428 
Q 3075 428 3337 486 
Q 3600 544 3809 666 
z
" transform="scale(0.015625)"/>
      </defs>
      <use xlink:href="#DejaVuSans-47"/>
      <use xlink:href="#DejaVuSans-6c" x="77.490234"/>
      <use xlink:href="#DejaVuSans-61" x="105.273438"/>
      <use xlink:href="#DejaVuSans-73" x="166.552734"/>
      <use xlink:href="#DejaVuSans-73" x="218.652344"/>
      <use xlink:href="#DejaVuSans-5f" x="270.751953"/>
      <use xlink:href="#DejaVuSans-31" x="320.751953"/>
      <use xlink:href="#DejaVuSans-30" x="384.375"/>
      <use xlink:href="#DejaVuSans-4e" x="447.998047"/>
      <use xlink:href="#DejaVuSans-4e" x="522.802734"/>
     </g>
    </g>
    <g id="line2d_52">
     <path d="M 261.710625 277.769937 
L 271.710625 277.769937 
L 271.710625 277.769937 
L 281.710625 277.769937 
L 281.710625 277.769937 
" style="fill: none; stroke: #d62728; stroke-width: 1.5; stroke-linecap: square"/>
    </g>
    <g id="text_19">
     <!-- micromass_10NN -->
     <g transform="translate(289.710625 281.269937) scale(0.1 -0.1)">
      <use xlink:href="#DejaVuSans-6d"/>
      <use xlink:href="#DejaVuSans-69" x="97.412109"/>
      <use xlink:href="#DejaVuSans-63" x="125.195312"/>
      <use xlink:href="#DejaVuSans-72" x="180.175781"/>
      <use xlink:href="#DejaVuSans-6f" x="219.039062"/>
      <use xlink:href="#DejaVuSans-6d" x="280.220703"/>
      <use xlink:href="#DejaVuSans-61" x="377.632812"/>
      <use xlink:href="#DejaVuSans-73" x="438.912109"/>
      <use xlink:href="#DejaVuSans-73" x="491.011719"/>
      <use xlink:href="#DejaVuSans-5f" x="543.111328"/>
      <use xlink:href="#DejaVuSans-31" x="593.111328"/>
      <use xlink:href="#DejaVuSans-30" x="656.734375"/>
      <use xlink:href="#DejaVuSans-4e" x="720.357422"/>
      <use xlink:href="#DejaVuSans-4e" x="795.162109"/>
     </g>
    </g>
    <g id="line2d_53">
     <path d="M 261.710625 292.726187 
L 271.710625 292.726187 
L 271.710625 292.726187 
L 281.710625 292.726187 
L 281.710625 292.726187 
" style="fill: none; stroke: #9467bd; stroke-width: 1.5; stroke-linecap: square"/>
    </g>
    <g id="text_20">
     <!-- plantstexture_10NN -->
     <g transform="translate(289.710625 296.226187) scale(0.1 -0.1)">
      <defs>
       <path id="DejaVuSans-78" d="M 3513 3500 
L 2247 1797 
L 3578 0 
L 2900 0 
L 1881 1375 
L 863 0 
L 184 0 
L 1544 1831 
L 300 3500 
L 978 3500 
L 1906 2253 
L 2834 3500 
L 3513 3500 
z
" transform="scale(0.015625)"/>
       <path id="DejaVuSans-75" d="M 544 1381 
L 544 3500 
L 1119 3500 
L 1119 1403 
Q 1119 906 1312 657 
Q 1506 409 1894 409 
Q 2359 409 2629 706 
Q 2900 1003 2900 1516 
L 2900 3500 
L 3475 3500 
L 3475 0 
L 2900 0 
L 2900 538 
Q 2691 219 2414 64 
Q 2138 -91 1772 -91 
Q 1169 -91 856 284 
Q 544 659 544 1381 
z
M 1991 3584 
L 1991 3584 
z
" transform="scale(0.015625)"/>
      </defs>
      <use xlink:href="#DejaVuSans-70"/>
      <use xlink:href="#DejaVuSans-6c" x="63.476562"/>
      <use xlink:href="#DejaVuSans-61" x="91.259766"/>
      <use xlink:href="#DejaVuSans-6e" x="152.539062"/>
      <use xlink:href="#DejaVuSans-74" x="215.917969"/>
      <use xlink:href="#DejaVuSans-73" x="255.126953"/>
      <use xlink:href="#DejaVuSans-74" x="307.226562"/>
      <use xlink:href="#DejaVuSans-65" x="346.435547"/>
      <use xlink:href="#DejaVuSans-78" x="406.208984"/>
      <use xlink:href="#DejaVuSans-74" x="465.388672"/>
      <use xlink:href="#DejaVuSans-75" x="504.597656"/>
      <use xlink:href="#DejaVuSans-72" x="567.976562"/>
      <use xlink:href="#DejaVuSans-65" x="606.839844"/>
      <use xlink:href="#DejaVuSans-5f" x="668.363281"/>
      <use xlink:href="#DejaVuSans-31" x="718.363281"/>
      <use xlink:href="#DejaVuSans-30" x="781.986328"/>
      <use xlink:href="#DejaVuSans-4e" x="845.609375"/>
      <use xlink:href="#DejaVuSans-4e" x="920.414062"/>
     </g>
    </g>
   </g>
  </g>
 </g>
 <defs>
  <clipPath id="p4d6a1d9584">
   <rect x="57.6" y="41.472" width="357.12" height="266.112"/>
  </clipPath>
 </defs>
</svg>
